<svg width="21" height="20" viewBox="0 0 21 20" fill="#fefefe" xmlns="http://www.w3.org/2000/svg">
  <path d="M10.002 20C4.49133 20 0.00195313 15.5106 0.00195312 10C0.00195312 4.48937 4.49133 0 10.002 0C15.5126 0 20.002 4.48937 20.002 10C20.002 15.5106 15.5126 20 10.002 20ZM18.4363 11.3675C18.1438 11.2756 15.7932 10.5731 13.1138 11.0025C14.2307 14.0725 14.6863 16.5725 14.7745 17.0931C15.7434 16.4393 16.5682 15.594 17.1979 14.6093C17.8277 13.6246 18.2492 12.5213 18.4363 11.3675ZM13.3388 17.8744C13.212 17.1263 12.7138 14.515 11.5157 11.4L11.4607 11.4156C6.63633 13.0956 4.91133 16.4387 4.76133 16.7512C6.25662 17.9229 8.10232 18.5579 10.002 18.5544C11.1838 18.5544 12.3101 18.3138 13.3351 17.8769L13.3388 17.8744ZM3.65758 15.7256C3.84945 15.3906 6.1932 11.5131 10.6007 10.0875C10.7113 10.0494 10.8251 10.0169 10.9357 9.98688C10.719 9.49745 10.4878 9.01453 10.2426 8.53875C5.9782 9.81125 1.8407 9.75937 1.46695 9.74938L1.46383 10.01C1.46383 12.2044 2.29383 14.2094 3.6582 15.7225L3.65758 15.7256ZM1.63945 8.26188C2.02383 8.26875 5.54195 8.28438 9.53633 7.22375C8.56963 5.52113 7.5125 3.87148 6.36945 2.28188C5.17357 2.84597 4.12436 3.679 3.30382 4.71584C2.48328 5.75268 1.91365 6.96525 1.63945 8.25875V8.26188ZM8.00383 1.70937C8.2382 2.02875 9.7907 4.1375 11.187 6.70937C14.2238 5.57375 15.5126 3.84437 15.6663 3.62687C14.108 2.23559 12.091 1.46825 10.002 1.47187C9.3288 1.47069 8.65795 1.55043 8.00383 1.70937ZM16.6138 4.6125C16.4345 4.85313 15.002 6.68938 11.8445 7.97813C12.0426 8.38813 12.2351 8.79875 12.4113 9.21812C12.4795 9.36812 12.5345 9.51812 12.5932 9.65812C15.4357 9.3 18.2607 9.87625 18.5438 9.935C18.5316 7.99361 17.8522 6.11547 16.6195 4.61563L16.6138 4.6125Z" fill="white" />
</svg>
