<svg width="21" height="20" viewBox="0 0 21 20" fill="none" xmlns="http://www.w3.org/2000/svg">
<path d="M8.05974 15.134C8.18126 15.134 8.27341 15.1299 8.33417 15.1218C8.40545 15.1074 8.46972 15.0692 8.51645 15.0135C8.57721 14.9497 8.60759 14.8575 8.60759 14.736L8.60354 14.172C8.6005 13.8125 8.59949 13.5269 8.59949 13.3173L8.40911 13.3507C8.25676 13.3747 8.10248 13.3842 7.94834 13.3791C7.75468 13.3756 7.56163 13.3563 7.37113 13.3213C7.16896 13.2836 6.97871 13.1982 6.81619 13.0722C6.64582 12.9433 6.51868 12.7657 6.45163 12.5628L6.36859 12.3715C6.29875 12.2207 6.21103 12.079 6.10733 11.9492C6.01422 11.8161 5.89015 11.7077 5.74581 11.6332L5.68809 11.5927C5.64834 11.5634 5.61229 11.5294 5.58074 11.4915C5.55013 11.4569 5.52486 11.418 5.50581 11.376C5.4896 11.3375 5.50277 11.3051 5.54631 11.2808C5.62274 11.2501 5.70518 11.2373 5.78733 11.2434L5.9534 11.2687C6.0648 11.2899 6.2015 11.3568 6.36454 11.4672C6.52657 11.5785 6.66125 11.7213 6.76657 11.8985C6.89416 12.1254 7.04708 12.2985 7.22733 12.417C7.38644 12.5292 7.57546 12.5913 7.77012 12.5953C7.9524 12.5953 8.11037 12.5821 8.24303 12.5547C8.37216 12.528 8.49761 12.4858 8.6167 12.4292C8.66632 12.0596 8.80101 11.774 9.02177 11.5755C8.73517 11.5472 8.45114 11.4971 8.17214 11.4256C7.89973 11.3505 7.63778 11.2417 7.39239 11.1016C7.13541 10.9622 6.90833 10.7736 6.72404 10.5466C6.54783 10.3249 6.40302 10.0352 6.28859 9.67575C6.16928 9.27191 6.11225 8.85223 6.11948 8.43119C6.11948 7.76284 6.33821 7.19271 6.77467 6.72283C6.57011 6.21954 6.58935 5.65549 6.83239 5.03068C6.99341 4.98004 7.23138 5.01751 7.54632 5.14207C7.86126 5.26663 8.09316 5.37296 8.23898 5.46207C8.38582 5.55017 8.50227 5.6241 8.59138 5.68485C9.11005 5.54081 9.64601 5.46858 10.1843 5.47017C10.7311 5.47017 11.2628 5.54106 11.7772 5.68587L12.0911 5.48637C12.3079 5.35473 12.562 5.2322 12.8547 5.12182C13.1484 5.01042 13.3722 4.98004 13.5271 5.03068C13.7762 5.65549 13.7985 6.21954 13.5929 6.72182C14.0304 7.19271 14.2491 7.76182 14.2491 8.43119C14.2491 8.90107 14.1924 9.31727 14.079 9.6798C13.9656 10.0423 13.8187 10.332 13.6395 10.5507C13.4522 10.7754 13.224 10.9627 12.9671 11.1026C12.7217 11.2427 12.4598 11.3516 12.1873 11.4266C11.908 11.4978 11.6236 11.5476 11.3367 11.5755C11.6243 11.8236 11.7681 12.2165 11.7681 12.7532V14.735C11.7681 14.8292 11.7823 14.9051 11.8096 14.9639C11.8225 14.9918 11.8409 15.0169 11.8637 15.0376C11.8865 15.0584 11.9132 15.0742 11.9423 15.0844C12.003 15.1056 12.0577 15.1198 12.1043 15.1249C12.1519 15.131 12.2187 15.134 12.3068 15.134H8.05974Z" fill="white"/>
<path fill-rule="evenodd" clip-rule="evenodd" d="M10 18.8C14.8601 18.8 18.8 14.8601 18.8 10C18.8 5.13989 14.8601 1.2 10 1.2C5.13989 1.2 1.2 5.13989 1.2 10C1.2 14.8601 5.13989 18.8 10 18.8ZM10 20C15.5228 20 20 15.5228 20 10C20 4.47715 15.5228 0 10 0C4.47715 0 0 4.47715 0 10C0 15.5228 4.47715 20 10 20Z" fill="white"/>
</svg>
