<svg width="21" height="20" viewBox="0 0 21 20" fill="none" xmlns="http://www.w3.org/2000/svg">
<path d="M15.004 11.1293V14.8263H12.861V11.3763C12.861 10.5103 12.551 9.91927 11.775 9.91927C11.183 9.91927 10.83 10.3173 10.675 10.7033C10.619 10.8413 10.604 11.0333 10.604 11.2253V14.8263H8.46001C8.46001 14.8263 8.48901 8.98427 8.46001 8.37927H10.604V9.29227L10.59 9.31327H10.604V9.29227C10.889 8.85227 11.397 8.22727 12.536 8.22727C13.946 8.22727 15.004 9.14927 15.004 11.1293ZM6.21701 5.27027C5.48401 5.27027 5.00401 5.75227 5.00401 6.38427C5.00401 7.00427 5.47001 7.49927 6.18901 7.49927H6.20301C6.95101 7.49927 7.41601 7.00327 7.41601 6.38427C7.40201 5.75227 6.95101 5.27027 6.21701 5.27027ZM5.13101 14.8263H7.27501V8.37927H5.13101V14.8263Z" fill="white"/>
<path fill-rule="evenodd" clip-rule="evenodd" d="M18.002 1.2H2.00195C1.56013 1.2 1.20195 1.55817 1.20195 2V18C1.20195 18.4418 1.56013 18.8 2.00195 18.8H18.002C18.4438 18.8 18.802 18.4418 18.802 18V2C18.802 1.55817 18.4438 1.2 18.002 1.2ZM2.00195 0C0.897384 0 0.00195312 0.895431 0.00195312 2V18C0.00195312 19.1046 0.897384 20 2.00195 20H18.002C19.1065 20 20.002 19.1046 20.002 18V2C20.002 0.895431 19.1065 0 18.002 0H2.00195Z" fill="white"/>
</svg>
