<svg width="20" height="18" viewBox="0 0 20 18" fill="none" xmlns="http://www.w3.org/2000/svg">
<path d="M13.3618 2.10794C14.4031 2.10794 15.2817 2.47238 15.9976 3.20128C16.8046 3.04509 17.5595 2.76524 18.2624 2.36175C17.989 3.19477 17.4684 3.83256 16.7004 4.2751C17.4163 4.19701 18.0997 4.01478 18.7505 3.72843C18.5943 3.96272 18.4218 4.18724 18.2331 4.40201C18.0443 4.61677 17.8426 4.81852 17.6278 5.00725C17.4131 5.19598 17.1885 5.37496 16.9543 5.54416C16.9673 5.70036 16.9738 5.85004 16.9738 5.99322C16.9738 6.76116 16.8729 7.53561 16.6712 8.31657C16.4694 9.09753 16.1765 9.85897 15.7926 10.6009C15.4086 11.3428 14.9205 12.0326 14.3283 12.6704C13.736 13.3082 13.0722 13.8679 12.3368 14.3495C11.6014 14.8311 10.7554 15.2086 9.7987 15.4819C8.84202 15.7552 7.83003 15.8919 6.76272 15.8919C4.77127 15.8919 2.93601 15.3713 1.25694 14.33C1.40012 14.343 1.54004 14.356 1.67671 14.369C1.81338 14.382 1.95981 14.3885 2.116 14.3885C3.78205 14.3885 5.26588 13.8874 6.56748 12.8852C5.78652 12.8722 5.09016 12.6411 4.47841 12.1921C3.86665 11.743 3.44363 11.1671 3.20934 10.4642C3.28744 10.4772 3.36228 10.4902 3.43387 10.5033C3.50546 10.5163 3.5803 10.526 3.6584 10.5326C3.73649 10.5391 3.81459 10.5423 3.89269 10.5423C4.21809 10.5423 4.53047 10.4968 4.82984 10.4056C4.00983 10.2495 3.32649 9.85246 2.77982 9.21468C2.23314 8.57689 1.95981 7.83498 1.95981 6.98894V6.94989C2.46743 7.22323 3.0076 7.36641 3.5803 7.37942C3.2549 7.17116 2.97506 6.92061 2.74077 6.62775C2.50648 6.33489 2.321 6.00298 2.18433 5.63202C2.04767 5.26107 1.97933 4.88035 1.97933 4.48987C1.97933 4.17748 2.02163 3.87161 2.10624 3.57224C2.19084 3.27287 2.31124 2.99302 2.46743 2.7327C3.36554 3.81303 4.45563 4.67209 5.73771 5.30987C7.01978 5.94766 8.39623 6.3056 9.86703 6.3837C9.80196 6.12338 9.76942 5.85655 9.76942 5.58321C9.76942 4.62003 10.1208 3.80002 10.8237 3.12318C11.5266 2.44635 12.3726 2.10794 13.3618 2.10794ZM13.3618 0.858398C12.1513 0.858398 11.0905 1.25213 10.1794 2.0396C9.2683 2.82707 8.73464 3.80002 8.57845 4.95844C6.48287 4.54193 4.76476 3.53319 3.42411 1.93222C3.1768 1.63285 2.85791 1.48317 2.46743 1.48317L2.36981 1.50269C1.94028 1.52872 1.61488 1.72396 1.39361 2.08841C0.951067 2.83032 0.729794 3.63081 0.729794 4.48987C0.729794 5.04955 0.827414 5.58972 1.02265 6.11036C0.814398 6.35766 0.71027 6.63751 0.71027 6.94989V6.98894C0.71027 8.22546 1.1398 9.29928 1.99886 10.2104C1.97282 10.3145 1.96306 10.4219 1.96957 10.5326C1.97608 10.6432 1.99235 10.7506 2.01838 10.8547C2.30473 11.7007 2.78632 12.4101 3.46316 12.9828C3.24188 13.0349 3.01736 13.0739 2.78958 13.1C2.5618 13.126 2.33727 13.139 2.116 13.139C1.85568 13.139 1.61488 13.126 1.39361 13.1L1.25694 13.0804C0.983607 13.0804 0.739556 13.1585 0.524792 13.3147C0.310028 13.4709 0.15709 13.6727 0.0659777 13.92C-0.0251344 14.1933 -0.0218804 14.4699 0.0757397 14.7497C0.17336 15.0296 0.345822 15.2411 0.593126 15.3843C2.46743 16.5557 4.52396 17.1414 6.76272 17.1414C8.14241 17.1414 9.44402 16.9364 10.6675 16.5264C11.891 16.1164 12.9518 15.5535 13.8499 14.8376C14.748 14.1217 15.5257 13.2985 16.1831 12.3678C16.8404 11.4372 17.3415 10.4414 17.6864 9.38063C18.0313 8.31983 18.2103 7.24275 18.2233 6.14941C18.809 5.66782 19.3167 5.11463 19.7462 4.48987C19.8373 4.38574 19.9024 4.26859 19.9414 4.13843C19.9805 4.00827 20 3.87161 20 3.72843C20 3.2989 19.8243 2.96048 19.4729 2.71318C19.5119 2.54397 19.5249 2.38127 19.5119 2.22508C19.4989 2.06889 19.4533 1.91595 19.3752 1.76627C19.2971 1.61658 19.193 1.48968 19.0628 1.38555C18.8286 1.20332 18.5617 1.11221 18.2624 1.11221C18.2103 1.11221 18.1582 1.11546 18.1062 1.12197C18.0541 1.12848 18.002 1.13824 17.95 1.15126C17.8979 1.16427 17.8459 1.18054 17.7938 1.20007C17.7417 1.21959 17.6897 1.24237 17.6376 1.2684C17.2341 1.51571 16.7981 1.70444 16.3295 1.8346C15.4444 1.1838 14.4552 0.858398 13.3618 0.858398Z" fill="white"/>
</svg>
