<?xml version="1.0" encoding="UTF-8"?>
<svg width="560px" height="470px" viewBox="0 0 560 470" version="1.1" xmlns="http://www.w3.org/2000/svg" xmlns:xlink="http://www.w3.org/1999/xlink">
    <!-- Generator: Sketch 57.1 (83088) - https://sketch.com -->
    <title>bit</title>
    <desc>Created with Sketch.</desc>
    <defs>
        <path d="M281.63415,118.347998 L283.188477,118.347998 L283.188477,124.959163 C283.197855,125.657793 283.39947,126.189963 283.793328,126.555689 C284.177809,126.94017 284.67247,127.132408 285.277324,127.132408 C285.882178,127.132408 286.381527,126.94017 286.775386,126.555689 C287.159867,126.189963 287.356793,125.657793 287.366171,124.959163 L287.366171,118.347998 L288.920498,118.347998 L288.920498,125.127959 C288.901743,126.206381 288.552433,127.062073 287.872558,127.69506 C287.187994,128.346802 286.322925,128.677357 285.277324,128.686735 C284.250478,128.677357 283.392442,128.346802 282.703189,127.69506 C281.999871,127.062073 281.643528,126.206381 281.63415,125.127959 L281.63415,118.347998 Z M290.977925,126.1126 C291.793775,126.783098 292.764341,127.12303 293.889651,127.132408 C295.221268,127.113652 295.896444,126.637747 295.915199,125.704677 C295.924577,124.940404 295.479148,124.480909 294.5789,124.326179 C294.166286,124.269913 293.713824,124.206616 293.221501,124.136284 C292.340008,123.990931 291.669521,123.665065 291.210019,123.158675 C290.736451,122.638219 290.49967,122.005242 290.49967,121.259724 C290.49967,120.364164 290.797404,119.642101 291.392881,119.093512 C291.969603,118.549612 292.787785,118.272978 293.847452,118.2636 C295.122804,118.291733 296.231687,118.645731 297.174134,119.325606 L296.309056,120.60564 C295.540094,120.099251 294.693779,119.836682 293.770087,119.817927 C293.29183,119.817927 292.893289,119.93749 292.574451,120.176618 C292.241547,120.425124 292.070408,120.795533 292.061031,121.287856 C292.061031,121.58325 292.175904,121.850507 292.405655,122.089636 C292.635406,122.333453 293.003471,122.502247 293.509861,122.596023 C293.791188,122.642911 294.175663,122.696831 294.663298,122.757786 C295.6245,122.889072 296.334842,123.233693 296.794344,123.791659 C297.249157,124.340248 297.47656,124.977914 297.47656,125.704677 C297.424983,127.664593 296.22467,128.658602 293.875585,128.686735 C292.356416,128.686735 291.050606,128.217862 289.958118,127.280104 L290.977925,126.1126 Z M298.872693,118.347998 L302.846425,118.347998 C303.854515,118.357375 304.611744,118.610566 305.118134,119.107579 C305.629212,119.609279 305.884747,120.272734 305.884747,121.097961 C305.894125,121.519953 305.793317,121.923183 305.582322,122.307664 C305.474479,122.490527 305.319752,122.664009 305.118134,122.828117 C304.916515,123.001602 304.668013,123.158675 304.372619,123.299338 L304.372619,123.327471 C304.930586,123.472824 305.352571,123.765869 305.638587,124.206615 C305.905848,124.661428 306.039477,125.156089 306.039477,125.690611 C306.030099,126.576793 305.753465,127.277757 305.209565,127.793524 C304.670353,128.332735 303.997522,128.602337 303.191049,128.602337 L298.872693,128.602337 L298.872693,118.347998 Z M300.42702,124.051886 L300.42702,127.132408 L302.818292,127.132408 C303.395014,127.12303 303.816999,126.965958 304.08426,126.661186 C304.351521,126.361103 304.48515,126.004761 304.48515,125.592147 C304.48515,125.170155 304.351521,124.809124 304.08426,124.509041 C303.816999,124.213647 303.395014,124.061264 302.818292,124.051886 L300.42702,124.051886 Z M300.42702,119.733529 L300.42702,122.666355 L302.670596,122.666355 C303.23794,122.666355 303.655236,122.51866 303.922497,122.223266 C304.194447,121.951316 304.33042,121.609039 304.33042,121.196425 C304.33042,120.783812 304.194447,120.434502 303.922497,120.148485 C303.655236,119.881224 303.23794,119.742907 302.670596,119.733529 L300.42702,119.733529 Z" id="path-1"></path>
        <path d="M281.63415,134.1837 L285.607882,134.1837 C286.615973,134.193078 287.373201,134.446269 287.879591,134.943281 C288.390669,135.444982 288.646205,136.108436 288.646205,136.933663 C288.655582,137.355655 288.554775,137.758885 288.343779,138.143366 C288.235937,138.326229 288.081209,138.499712 287.879591,138.663819 C287.677973,138.837305 287.429471,138.994377 287.134077,139.135041 L287.134077,139.163173 C287.692043,139.308526 288.114028,139.601571 288.400044,140.042318 C288.667306,140.49713 288.800934,140.991791 288.800934,141.526313 C288.791557,142.412495 288.514922,143.113459 287.971022,143.629226 C287.431811,144.168437 286.758979,144.438039 285.952507,144.438039 L281.63415,144.438039 L281.63415,134.1837 Z M283.188477,139.887588 L283.188477,142.96811 L285.57975,142.96811 C286.156471,142.958732 286.578456,142.80166 286.845717,142.496888 C287.112979,142.196806 287.246607,141.840463 287.246607,141.427849 C287.246607,141.005858 287.112979,140.644826 286.845717,140.344743 C286.578456,140.049349 286.156471,139.896966 285.57975,139.887588 L283.188477,139.887588 Z M283.188477,135.569231 L283.188477,138.502057 L285.432053,138.502057 C285.999397,138.502057 286.416694,138.354362 286.683955,138.058968 C286.955905,137.787018 287.091878,137.444741 287.091878,137.032127 C287.091878,136.619514 286.955905,136.270204 286.683955,135.984187 C286.416694,135.716926 285.999397,135.578609 285.432053,135.569231 L283.188477,135.569231 Z M289.978862,134.1837 L291.533189,134.1837 L291.533189,142.96811 L296.526728,142.96811 L296.526728,144.438039 L289.978862,144.438039 L289.978862,134.1837 Z M298.141244,134.1837 L304.689111,134.1837 L304.689111,135.653629 L299.695572,135.653629 L299.695572,138.579421 L303.957663,138.579421 L303.957663,139.95792 L299.695572,139.95792 L299.695572,142.96811 L304.689111,142.96811 L304.689111,144.438039 L298.141244,144.438039 L298.141244,134.1837 Z M314.719204,140.766732 L313.235208,136.286613 L313.207075,136.286613 L311.72308,140.766732 L314.719204,140.766732 Z M315.162292,142.145231 L311.272958,142.145231 L310.485245,144.438039 L308.839487,144.438039 L312.567058,134.1837 L313.868192,134.1837 L317.595764,144.438039 L315.957039,144.438039 L315.162292,142.145231 Z M318.64745,134.1837 L320.110346,134.1837 L324.752228,141.470048 L324.78036,141.470048 L324.78036,134.1837 L326.334687,134.1837 L326.334687,144.438039 L324.864758,144.438039 L320.229909,137.151691 L320.201777,137.151691 L320.201777,144.438039 L318.64745,144.438039 L318.64745,134.1837 Z M330.389708,135.569231 L327.583479,135.569231 L327.583479,134.1837 L334.757297,134.1837 L334.757297,135.569231 L331.951068,135.569231 L331.951068,144.438039 L330.389708,144.438039 L330.389708,135.569231 Z M336.006089,134.1837 L342.553956,134.1837 L342.553956,135.653629 L337.560416,135.653629 L337.560416,138.579421 L341.822507,138.579421 L341.822507,139.95792 L337.560416,139.95792 L337.560416,142.96811 L342.553956,142.96811 L342.553956,144.438039 L336.006089,144.438039 L336.006089,134.1837 Z M344.168472,134.1837 L345.631368,134.1837 L350.27325,141.470048 L350.301382,141.470048 L350.301382,134.1837 L351.855709,134.1837 L351.855709,144.438039 L350.38578,144.438039 L345.750931,137.151691 L345.722799,137.151691 L345.722799,144.438039 L344.168472,144.438039 L344.168472,134.1837 Z M353.385117,134.1837 L354.848013,134.1837 L359.489895,141.470048 L359.518027,141.470048 L359.518027,134.1837 L361.072354,134.1837 L361.072354,144.438039 L359.602425,144.438039 L354.967576,137.151691 L354.939444,137.151691 L354.939444,144.438039 L353.385117,144.438039 L353.385117,134.1837 Z M368.397969,140.766732 L366.913974,136.286613 L366.885841,136.286613 L365.401846,140.766732 L368.397969,140.766732 Z M368.841058,142.145231 L364.951724,142.145231 L364.164011,144.438039 L362.518252,144.438039 L366.245824,134.1837 L367.546958,134.1837 L371.27453,144.438039 L369.635805,144.438039 L368.841058,142.145231 Z" id="path-2"></path>
        <path d="M283.188477,154.682383 L285.537551,154.682383 C286.118961,154.673006 286.555012,154.504212 286.845717,154.175996 C287.131734,153.871225 287.27474,153.496127 287.27474,153.050692 C287.265362,152.516169 287.094224,152.12935 286.761319,151.890221 C286.498747,151.679226 286.118961,151.573729 285.621948,151.573729 L283.188477,151.573729 L283.188477,154.682383 Z M281.63415,150.188198 L285.636015,150.188198 C286.489375,150.188198 287.18565,150.413257 287.724862,150.863381 C288.376604,151.374459 288.716536,152.103555 288.744669,153.050692 C288.725914,154.443263 288.064804,155.390385 286.761319,155.892086 L289.138526,160.442537 L287.288806,160.442537 L285.171827,156.060882 L283.188477,156.060882 L283.188477,160.442537 L281.63415,160.442537 L281.63415,150.188198 Z M290.57018,150.188198 L297.118046,150.188198 L297.118046,151.658127 L292.124507,151.658127 L292.124507,154.583919 L296.386598,154.583919 L296.386598,155.962418 L292.124507,155.962418 L292.124507,158.972608 L297.118046,158.972608 L297.118046,160.442537 L290.57018,160.442537 L290.57018,150.188198 Z M299.253371,157.9528 C300.069221,158.623298 301.039787,158.96323 302.165097,158.972608 C303.496714,158.953852 304.17189,158.477947 304.190646,157.544877 C304.200023,156.780604 303.754594,156.321109 302.854346,156.166379 C302.441732,156.110113 301.989271,156.046816 301.496947,155.976484 C300.615454,155.831131 299.944967,155.505265 299.485465,154.998875 C299.011897,154.478419 298.775117,153.845442 298.775117,153.099924 C298.775117,152.204364 299.072851,151.482301 299.668327,150.933712 C300.245049,150.389812 301.063231,150.113178 302.122898,150.1038 C303.39825,150.131933 304.507133,150.485931 305.44958,151.165806 L304.584502,152.44584 C303.81554,151.939451 302.969226,151.676882 302.045533,151.658127 C301.567277,151.658127 301.168735,151.77769 300.849897,152.016818 C300.516993,152.265324 300.345855,152.635733 300.336477,153.128056 C300.336477,153.42345 300.451351,153.690707 300.681102,153.929836 C300.910852,154.173653 301.278917,154.342447 301.785307,154.436223 C302.066634,154.483111 302.45111,154.537031 302.938744,154.597986 C303.899947,154.729272 304.610288,155.073893 305.06979,155.631859 C305.524603,156.180448 305.752006,156.818114 305.752006,157.544877 C305.700429,159.504793 304.500116,160.498802 302.151031,160.526935 C300.631862,160.526935 299.326053,160.058062 298.233564,159.120304 L299.253371,157.9528 Z M306.951033,150.188198 L313.498899,150.188198 L313.498899,151.658127 L308.50536,151.658127 L308.50536,154.583919 L312.767451,154.583919 L312.767451,155.962418 L308.50536,155.962418 L308.50536,158.972608 L313.498899,158.972608 L313.498899,160.442537 L306.951033,160.442537 L306.951033,150.188198 Z M317.639029,151.573729 L314.8328,151.573729 L314.8328,150.188198 L322.006617,150.188198 L322.006617,151.573729 L319.200389,151.573729 L319.200389,160.442537 L317.639029,160.442537 L317.639029,151.573729 Z" id="path-3"></path>
        <path d="M281.63415,166.0239 L285.607882,166.0239 C286.615973,166.033278 287.373201,166.286469 287.879591,166.783481 C288.390669,167.285182 288.646205,167.948636 288.646205,168.773863 C288.655582,169.195855 288.554775,169.599085 288.343779,169.983566 C288.235937,170.166429 288.081209,170.339912 287.879591,170.504019 C287.677973,170.677505 287.429471,170.834577 287.134077,170.975241 L287.134077,171.003373 C287.692043,171.148726 288.114028,171.441771 288.400044,171.882518 C288.667306,172.33733 288.800934,172.831991 288.800934,173.366513 C288.791557,174.252695 288.514922,174.953659 287.971022,175.469426 C287.431811,176.008637 286.758979,176.278239 285.952507,176.278239 L281.63415,176.278239 L281.63415,166.0239 Z M283.188477,171.727788 L283.188477,174.80831 L285.57975,174.80831 C286.156471,174.798932 286.578456,174.64186 286.845717,174.337088 C287.112979,174.037006 287.246607,173.680663 287.246607,173.268049 C287.246607,172.846058 287.112979,172.485026 286.845717,172.184943 C286.578456,171.889549 286.156471,171.737166 285.57975,171.727788 L283.188477,171.727788 Z M283.188477,167.409431 L283.188477,170.342257 L285.432053,170.342257 C285.999397,170.342257 286.416694,170.194562 286.683955,169.899168 C286.955905,169.627218 287.091878,169.284941 287.091878,168.872327 C287.091878,168.459714 286.955905,168.110404 286.683955,167.824388 C286.416694,167.557126 285.999397,167.418809 285.432053,167.409431 L283.188477,167.409431 Z M295.183751,172.606932 L293.699756,168.126813 L293.671623,168.126813 L292.187628,172.606932 L295.183751,172.606932 Z M295.62684,173.985431 L291.737506,173.985431 L290.949792,176.278239 L289.304034,176.278239 L293.031606,166.0239 L294.33274,166.0239 L298.060311,176.278239 L296.421586,176.278239 L295.62684,173.985431 Z M300.174359,167.409431 L297.368131,167.409431 L297.368131,166.0239 L304.541948,166.0239 L304.541948,167.409431 L301.735719,167.409431 L301.735719,176.278239 L300.174359,176.278239 L300.174359,167.409431 Z M308.513459,167.409431 L305.707231,167.409431 L305.707231,166.0239 L312.881048,166.0239 L312.881048,167.409431 L310.074819,167.409431 L310.074819,176.278239 L308.513459,176.278239 L308.513459,167.409431 Z M314.12984,166.0239 L320.677707,166.0239 L320.677707,167.493829 L315.684167,167.493829 L315.684167,170.419621 L319.946259,170.419621 L319.946259,171.79812 L315.684167,171.79812 L315.684167,174.80831 L320.677707,174.80831 L320.677707,176.278239 L314.12984,176.278239 L314.12984,166.0239 Z M323.84655,170.518086 L326.195623,170.518086 C326.777034,170.508708 327.213085,170.339914 327.50379,170.011698 C327.789806,169.706927 327.932812,169.331829 327.932812,168.886394 C327.923435,168.351871 327.752297,167.965052 327.419392,167.725923 C327.15682,167.514928 326.777033,167.409431 326.280021,167.409431 L323.84655,167.409431 L323.84655,170.518086 Z M322.292223,166.0239 L326.294088,166.0239 C327.147448,166.0239 327.843723,166.248959 328.382934,166.699083 C329.034677,167.210161 329.374609,167.939258 329.402742,168.886394 C329.383987,170.278965 328.722877,171.226087 327.419392,171.727788 L329.796598,176.278239 L327.946879,176.278239 L325.829899,171.896584 L323.84655,171.896584 L323.84655,176.278239 L322.292223,176.278239 L322.292223,166.0239 Z M332.979863,172.058346 L329.892308,166.0239 L331.538067,166.0239 L333.711311,170.574351 L335.884556,166.0239 L337.530314,166.0239 L334.442759,172.058346 L334.442759,176.278239 L332.979863,176.278239 L332.979863,172.058346 Z" id="path-4"></path>
        <path d="M92.9053771,302.042143 L95.2052186,302.042143 C95.7819401,302.032765 96.2156469,301.854594 96.5063521,301.507623 C96.7829909,301.17003 96.9213082,300.794932 96.9213082,300.382318 C96.9213082,300.040036 96.8650435,299.75168 96.7525125,299.51724 C96.6352927,299.306245 96.4711874,299.139795 96.2601917,299.017886 C95.9413538,298.816268 95.5709447,298.72015 95.1489533,298.729527 L92.9053771,298.729527 L92.9053771,302.042143 Z M91.35105,297.259598 L95.0645555,297.259598 C95.4677917,297.259598 95.8569556,297.297108 96.2320591,297.372128 C96.6071625,297.470593 96.9869491,297.672208 97.3714301,297.97698 C97.6949568,298.20673 97.9575253,298.534941 98.1591434,298.961621 C98.370139,299.374235 98.4756353,299.861862 98.4756353,300.424517 C98.4756353,301.184102 98.2083781,301.875688 97.6738557,302.499298 C97.1252669,303.155729 96.3234954,303.493317 95.2685169,303.512072 L92.9053771,303.512072 L92.9053771,307.513937 L91.35105,307.513937 L91.35105,297.259598 Z M99.8892993,297.259598 L101.443626,297.259598 L101.443626,307.513937 L99.8892993,307.513937 L99.8892993,297.259598 Z M103.602805,297.259598 L105.065701,297.259598 L109.707583,304.545946 L109.735715,304.545946 L109.735715,297.259598 L111.290042,297.259598 L111.290042,307.513937 L109.820113,307.513937 L105.185265,300.227589 L105.157132,300.227589 L105.157132,307.513937 L103.602805,307.513937 L103.602805,297.259598 Z M113.582851,305.0242 C114.398701,305.694698 115.369266,306.03463 116.494577,306.044008 C117.826194,306.025252 118.50137,305.549347 118.520125,304.616277 C118.529503,303.852004 118.084074,303.392509 117.183826,303.237779 C116.771212,303.181513 116.31875,303.118216 115.826427,303.047884 C114.944934,302.902531 114.274447,302.576665 113.814945,302.070275 C113.341377,301.549819 113.104596,300.916842 113.104596,300.171324 C113.104596,299.275764 113.40233,298.553701 113.997807,298.005112 C114.574528,297.461212 115.39271,297.184578 116.452378,297.1752 C117.727729,297.203333 118.836612,297.557331 119.77906,298.237206 L118.913982,299.51724 C118.14502,299.010851 117.298705,298.748282 116.375013,298.729527 C115.896756,298.729527 115.498215,298.84909 115.179377,299.088218 C114.846472,299.336724 114.675334,299.707133 114.665956,300.199456 C114.665956,300.49485 114.78083,300.762107 115.010581,301.001236 C115.240332,301.245053 115.608397,301.413847 116.114786,301.507623 C116.396114,301.554511 116.780589,301.608431 117.268224,301.669386 C118.229426,301.800672 118.939768,302.145293 119.399269,302.703259 C119.854082,303.251848 120.081485,303.889514 120.081485,304.616277 C120.029909,306.576193 118.829596,307.570202 116.48051,307.598335 C114.961341,307.598335 113.655532,307.129462 112.563043,306.191704 L113.582851,305.0242 Z" id="path-5"></path>
        <path d="M96.8657833,287.92253 L95.3817877,283.442411 L95.3536551,283.442411 L93.8696596,287.92253 L96.8657833,287.92253 Z M97.308872,289.301029 L93.4195377,289.301029 L92.6318244,291.593837 L90.9860663,291.593837 L94.7136381,281.339498 L96.0147716,281.339498 L99.7423434,291.593837 L98.1036185,291.593837 L97.308872,289.301029 Z M107.492879,288.72431 C107.267817,289.676135 106.838799,290.407576 106.205812,290.918654 C105.55407,291.425044 104.782775,291.678235 103.891904,291.678235 C103.085432,291.659479 102.4126,291.462553 101.873389,291.08745 C101.3248,290.726413 100.926259,290.309116 100.677753,289.835548 C100.602732,289.680818 100.534746,289.533123 100.473791,289.39246 C100.417526,289.247107 100.370639,289.064247 100.333128,288.843873 C100.262796,288.43126 100.227631,287.638866 100.227631,286.466667 C100.227631,285.275714 100.262796,284.478631 100.333128,284.075395 C100.408149,283.672159 100.523023,283.346292 100.677753,283.097786 C100.926259,282.624218 101.3248,282.202233 101.873389,281.831819 C102.4126,281.456715 103.085432,281.264478 103.891904,281.2551 C104.88124,281.264478 105.6877,281.557523 106.31131,282.134244 C106.934919,282.715655 107.328772,283.435374 107.492879,284.293423 L105.847121,284.293423 C105.720524,283.880809 105.490777,283.529155 105.157872,283.23845 C104.810902,282.961811 104.388916,282.818805 103.891904,282.809427 C103.526179,282.818805 103.212034,282.89148 102.949462,283.027455 C102.682201,283.168119 102.466519,283.343946 102.302412,283.554941 C102.100793,283.775315 101.967165,284.058982 101.901522,284.405953 C101.826501,284.771679 101.788991,285.458577 101.788991,286.466667 C101.788991,287.474758 101.826501,288.156967 101.901522,288.513315 C101.967165,288.869664 102.100793,289.15802 102.302412,289.378393 C102.466519,289.589389 102.682201,289.760527 102.949462,289.891813 C103.212034,290.046544 103.526179,290.123908 103.891904,290.123908 C104.76402,290.123908 105.415752,289.65738 105.847121,288.72431 L107.492879,288.72431 Z M115.503642,288.72431 C115.27858,289.676135 114.849562,290.407576 114.216575,290.918654 C113.564833,291.425044 112.793538,291.678235 111.902667,291.678235 C111.096195,291.659479 110.423363,291.462553 109.884152,291.08745 C109.335563,290.726413 108.937022,290.309116 108.688516,289.835548 C108.613495,289.680818 108.545509,289.533123 108.484554,289.39246 C108.428289,289.247107 108.381401,289.064247 108.343891,288.843873 C108.273559,288.43126 108.238394,287.638866 108.238394,286.466667 C108.238394,285.275714 108.273559,284.478631 108.343891,284.075395 C108.418912,283.672159 108.533786,283.346292 108.688516,283.097786 C108.937022,282.624218 109.335563,282.202233 109.884152,281.831819 C110.423363,281.456715 111.096195,281.264478 111.902667,281.2551 C112.892003,281.264478 113.698463,281.557523 114.322072,282.134244 C114.945682,282.715655 115.339534,283.435374 115.503642,284.293423 L113.857884,284.293423 C113.731287,283.880809 113.501539,283.529155 113.168635,283.23845 C112.821664,282.961811 112.399679,282.818805 111.902667,282.809427 C111.536941,282.818805 111.222797,282.89148 110.960225,283.027455 C110.692963,283.168119 110.477282,283.343946 110.313174,283.554941 C110.111556,283.775315 109.977928,284.058982 109.912285,284.405953 C109.837264,284.771679 109.799754,285.458577 109.799754,286.466667 C109.799754,287.474758 109.837264,288.156967 109.912285,288.513315 C109.977928,288.869664 110.111556,289.15802 110.313174,289.378393 C110.477282,289.589389 110.692963,289.760527 110.960225,289.891813 C111.222797,290.046544 111.536941,290.123908 111.902667,290.123908 C112.774783,290.123908 113.426515,289.65738 113.857884,288.72431 L115.503642,288.72431 Z M116.600814,281.339498 L123.148681,281.339498 L123.148681,282.809427 L118.155141,282.809427 L118.155141,285.735219 L122.417233,285.735219 L122.417233,287.113718 L118.155141,287.113718 L118.155141,290.123908 L123.148681,290.123908 L123.148681,291.593837 L116.600814,291.593837 L116.600814,281.339498 Z M124.611577,281.339498 L126.165904,281.339498 L126.165904,290.123908 L131.159444,290.123908 L131.159444,291.593837 L124.611577,291.593837 L124.611577,281.339498 Z M132.62234,281.339498 L139.170206,281.339498 L139.170206,282.809427 L134.176667,282.809427 L134.176667,285.735219 L138.438758,285.735219 L138.438758,287.113718 L134.176667,287.113718 L134.176667,290.123908 L139.170206,290.123908 L139.170206,291.593837 L132.62234,291.593837 L132.62234,281.339498 Z M142.18743,285.833683 L144.536503,285.833683 C145.117913,285.824306 145.553965,285.655512 145.84467,285.327296 C146.130686,285.022525 146.273692,284.647427 146.273692,284.201992 C146.264315,283.667469 146.093176,283.28065 145.760272,283.041521 C145.4977,282.830526 145.117913,282.725029 144.620901,282.725029 L142.18743,282.725029 L142.18743,285.833683 Z M140.633102,281.339498 L144.634967,281.339498 C145.488328,281.339498 146.184603,281.564557 146.723814,282.014681 C147.375556,282.525759 147.715489,283.254855 147.743621,284.201992 C147.724866,285.594563 147.063756,286.541685 145.760272,287.043386 L148.137478,291.593837 L146.287759,291.593837 L144.170779,287.212182 L142.18743,287.212182 L142.18743,291.593837 L140.633102,291.593837 L140.633102,281.339498 Z M149.065854,286.466667 C149.065854,285.275714 149.10102,284.478631 149.171352,284.075395 C149.246372,283.672159 149.361246,283.346292 149.515976,283.097786 C149.764482,282.624218 150.163024,282.202233 150.711613,281.831819 C151.250824,281.456715 151.923655,281.264478 152.730128,281.2551 C153.545978,281.264478 154.225843,281.456715 154.769743,281.831819 C155.308954,282.202233 155.698118,282.624218 155.937246,283.097786 C156.110732,283.346292 156.230294,283.672159 156.295937,284.075395 C156.356891,284.478631 156.387368,285.275714 156.387368,286.466667 C156.387368,287.638866 156.356891,288.43126 156.295937,288.843873 C156.230294,289.256487 156.110732,289.587042 155.937246,289.835548 C155.698118,290.309116 155.308954,290.726413 154.769743,291.08745 C154.225843,291.462553 153.545978,291.659479 152.730128,291.678235 C151.923655,291.659479 151.250824,291.462553 150.711613,291.08745 C150.163024,290.726413 149.764482,290.309116 149.515976,289.835548 C149.440956,289.680818 149.372969,289.533123 149.312015,289.39246 C149.255749,289.247107 149.208862,289.064247 149.171352,288.843873 C149.10102,288.43126 149.065854,287.638866 149.065854,286.466667 Z M150.627215,286.466667 C150.627215,287.474758 150.664725,288.156967 150.739745,288.513315 C150.805388,288.869664 150.939017,289.15802 151.140635,289.378393 C151.304743,289.589389 151.520424,289.760527 151.787685,289.891813 C152.050258,290.046544 152.364402,290.123908 152.730128,290.123908 C153.100543,290.123908 153.42172,290.046544 153.69367,289.891813 C153.951554,289.760527 154.157857,289.589389 154.312588,289.378393 C154.514206,289.15802 154.652523,288.869664 154.727544,288.513315 C154.797876,288.156967 154.833041,287.474758 154.833041,286.466667 C154.833041,285.458577 154.797876,284.771679 154.727544,284.405953 C154.652523,284.058982 154.514206,283.775315 154.312588,283.554941 C154.157857,283.343946 153.951554,283.168119 153.69367,283.027455 C153.42172,282.89148 153.100543,282.818805 152.730128,282.809427 C152.364402,282.818805 152.050258,282.89148 151.787685,283.027455 C151.520424,283.168119 151.304743,283.343946 151.140635,283.554941 C150.939017,283.775315 150.805388,284.058982 150.739745,284.405953 C150.664725,284.771679 150.627215,285.458577 150.627215,286.466667 Z M158.201922,281.339498 L159.664818,281.339498 L162.604677,288.020994 L165.48827,281.339498 L166.958199,281.339498 L166.958199,291.593837 L165.403872,291.593837 L165.403872,285.2007 L165.368706,285.2007 L163.223594,290.123908 L161.929494,290.123908 L159.784382,285.2007 L159.756249,285.2007 L159.756249,291.593837 L158.201922,291.593837 L158.201922,281.339498 Z M169.117377,281.339498 L175.665244,281.339498 L175.665244,282.809427 L170.671704,282.809427 L170.671704,285.735219 L174.933796,285.735219 L174.933796,287.113718 L170.671704,287.113718 L170.671704,290.123908 L175.665244,290.123908 L175.665244,291.593837 L169.117377,291.593837 L169.117377,281.339498 Z M178.865329,282.725029 L176.059101,282.725029 L176.059101,281.339498 L183.232918,281.339498 L183.232918,282.725029 L180.42669,282.725029 L180.42669,291.593837 L178.865329,291.593837 L178.865329,282.725029 Z M184.33009,281.339498 L190.877957,281.339498 L190.877957,282.809427 L185.884417,282.809427 L185.884417,285.735219 L190.146509,285.735219 L190.146509,287.113718 L185.884417,287.113718 L185.884417,290.123908 L190.877957,290.123908 L190.877957,291.593837 L184.33009,291.593837 L184.33009,281.339498 Z M193.89518,285.833683 L196.244254,285.833683 C196.825664,285.824306 197.261715,285.655512 197.55242,285.327296 C197.838437,285.022525 197.981443,284.647427 197.981443,284.201992 C197.972065,283.667469 197.800927,283.28065 197.468022,283.041521 C197.20545,282.830526 196.825663,282.725029 196.328651,282.725029 L193.89518,282.725029 L193.89518,285.833683 Z M192.340853,281.339498 L196.342718,281.339498 C197.196078,281.339498 197.892353,281.564557 198.431565,282.014681 C199.083307,282.525759 199.423239,283.254855 199.451372,284.201992 C199.432617,285.594563 198.771507,286.541685 197.468022,287.043386 L199.845229,291.593837 L197.995509,291.593837 L195.878529,287.212182 L193.89518,287.212182 L193.89518,291.593837 L192.340853,291.593837 L192.340853,281.339498 Z" id="path-6"></path>
        <path d="M12.0300253,0 C12.8458753,0.00937758595 13.5257401,0.201615214 14.0696401,0.576718652 C14.6088513,0.947133297 14.9980153,1.36911834 15.2371437,1.84268643 C15.410629,2.09119245 15.5301915,2.41705868 15.5958346,2.82029487 C15.6527253,3.19664866 15.6830666,3.91608663 15.6868592,4.97862825 L15.6872656,5.21156733 C15.6872656,6.38376558 15.6567889,7.1761597 15.5958346,7.58877349 C15.5301915,8.00138727 15.410629,8.33194221 15.2371437,8.58044824 C14.9980153,9.05401633 14.6088513,9.47131265 14.0696401,9.83234971 C13.5257401,10.2074531 12.8458753,10.4043795 12.0300253,10.4231347 C11.223553,10.4043795 10.5507213,10.2074531 10.0115101,9.83234971 C9.46292128,9.47131265 9.06437986,9.05401633 8.81587383,8.58044824 C8.74085314,8.42571807 8.67286666,8.27802331 8.61191235,8.13735952 C8.55564684,7.99200694 8.50875961,7.80914676 8.47124927,7.58877349 C8.40560617,7.20366729 8.37059697,6.48773022 8.36622083,5.44094293 L8.36575195,5.21156733 C8.36575195,4.02061392 8.40091737,3.22353107 8.47124927,2.82029487 C8.54626996,2.41705868 8.66114366,2.09119245 8.81587383,1.84268643 C9.06437986,1.36911834 9.46292128,0.947133297 10.0115101,0.576718652 C10.5507213,0.201615214 11.223553,0.00937758595 12.0300253,0 Z M12.0300253,1.5543271 C11.6642995,1.56370469 11.3501551,1.63637989 11.0875827,1.77235488 C10.8203215,1.91301867 10.6046402,2.08884577 10.4405325,2.29984146 C10.2389144,2.52021472 10.1052858,2.80388244 10.0396427,3.15085313 C9.96462199,3.51657898 9.92711221,4.20347684 9.92711221,5.21156733 C9.92711221,6.21965782 9.96462199,6.90186697 10.0396427,7.25821523 C10.1052858,7.6145635 10.2389144,7.90291994 10.4405325,8.12329321 C10.6046402,8.3342889 10.8203215,8.50542727 11.0875827,8.63671348 C11.3501551,8.79144364 11.6642995,8.86880757 12.0300253,8.86880757 C12.40044,8.86880757 12.7216175,8.79144364 12.9935675,8.63671348 C13.2514511,8.50542727 13.4577549,8.3342889 13.6124851,8.12329321 C13.8141032,7.90291994 13.9524205,7.6145635 14.0274412,7.25821523 C14.0977731,6.90186697 14.1329385,6.21965782 14.1329385,5.21156733 C14.1329385,4.20347684 14.0977731,3.51657898 14.0274412,3.15085313 C13.9524205,2.80388244 13.8141032,2.52021472 13.6124851,2.29984146 C13.4577549,2.08884577 13.2514511,1.91301867 12.9935675,1.77235488 C12.7216175,1.63637989 12.40044,1.56370469 12.0300253,1.5543271 Z" id="path-7"></path>
        <path d="M31.7757911,0.0843978516 C32.1790273,0.0843978516 32.5681913,0.121907633 32.9432947,0.19692832 C33.3183982,0.295392973 33.6981847,0.497008046 34.0826657,0.80177959 C34.4061924,1.03153045 34.6687609,1.35974103 34.870379,1.78642119 C35.0813747,2.19903497 35.1868709,2.68666213 35.1868709,3.24931729 C35.1868709,4.00890175 34.9196138,4.70048834 34.3850914,5.3240978 C33.8365026,5.98052882 33.034731,6.31811685 31.9797526,6.33687202 L29.6166127,6.33687202 L29.6166127,10.3387368 L28.0622856,10.3387368 L28.0622856,0.0843978516 L31.7757911,0.0843978516 Z M31.860189,1.5543271 L29.6166127,1.5543271 L29.6166127,4.86694277 L31.9164542,4.86694277 C32.4931757,4.85756519 32.9268826,4.67939373 33.2175877,4.33242305 C33.4942265,3.99482995 33.6325438,3.61973214 33.6325438,3.20711836 C33.6325438,2.86483647 33.5762792,2.57648003 33.4637481,2.34204038 C33.3465283,2.1310447 33.182423,1.96459504 32.9714273,1.84268643 C32.6525894,1.64106833 32.2821803,1.54494951 31.860189,1.5543271 Z" id="path-8"></path>
        <path d="M39.4911614,0.0843978516 L43.2187332,10.3387368 L41.5800082,10.3387368 L40.7852618,8.04592852 L36.8959274,8.04592852 L36.1082142,10.3387368 L34.4624561,10.3387368 L38.1900278,0.0843978516 L39.4911614,0.0843978516 Z M38.8581775,2.18731099 L38.8300449,2.18731099 L37.3460493,6.66743027 L40.342173,6.66743027 L38.8581775,2.18731099 Z" id="path-9"></path>
        <path d="M7.26524839,7.46920986 C7.04018633,8.42103484 6.6111682,9.15247557 5.97818115,9.663554 C5.32643893,10.1699436 4.55514405,10.4231347 3.66427339,10.4231347 C2.857801,10.4043795 2.1849693,10.2074531 1.64575811,9.83234971 C1.09716933,9.47131265 0.698627903,9.05401633 0.450121875,8.58044824 C0.375101187,8.42571807 0.307114709,8.27802331 0.2461604,8.13735952 C0.189894885,7.99200694 0.143007658,7.80914676 0.105497314,7.58877349 C0.0351654198,7.1761597 0,6.38376558 0,5.21156733 C0,4.02061392 0.0351654198,3.22353107 0.105497314,2.82029487 C0.180518002,2.41705868 0.295391707,2.09119245 0.450121875,1.84268643 C0.698627903,1.36911834 1.09716933,0.947133297 1.64575811,0.576718652 C2.1849693,0.201615214 2.857801,0.00937758595 3.66427339,0 C4.65360871,0.00937758595 5.460069,0.302422751 6.08367847,0.879144287 C6.70728793,1.46055462 7.10114063,2.18027354 7.26524839,3.03832266 L5.61949028,3.03832266 C5.49289287,2.62570887 5.26314546,2.27405468 4.93024116,1.98334951 C4.58327048,1.70671073 4.16128544,1.56370469 3.66427339,1.5543271 C3.29854754,1.56370469 2.98440312,1.63637989 2.72183071,1.77235488 C2.45456951,1.91301867 2.23888827,2.08884577 2.07478052,2.29984146 C1.87316242,2.52021472 1.73953382,2.80388244 1.67389072,3.15085313 C1.59887004,3.51657898 1.56136025,4.20347684 1.56136025,5.21156733 C1.56136025,6.21965782 1.59887004,6.90186697 1.67389072,7.25821523 C1.73953382,7.6145635 1.87316242,7.90291994 2.07478052,8.12329321 C2.23888827,8.3342889 2.45456951,8.50542727 2.72183071,8.63671348 C2.98440312,8.79144364 3.29854754,8.86880757 3.66427339,8.86880757 C4.53638888,8.86880757 5.18812133,8.40227967 5.61949028,7.46920986 L7.26524839,7.46920986 Z" id="path-10"></path>
        <polygon id="path-11" points="17.1468302 0.0843978516 18.6097263 0.0843978516 21.5495848 6.76589443 24.433178 0.0843978516 25.9031073 0.0843978516 25.9031073 10.3387368 24.3487802 10.3387368 24.3487802 3.94559956 24.3136144 3.94559956 22.1685023 8.86880757 20.874402 8.86880757 18.7292899 3.94559956 18.7011573 3.94559956 18.7011573 10.3387368 17.1468302 10.3387368"></polygon>
        <path d="M45.0162593,7.8490002 C45.8321093,8.51949759 46.8026749,8.85942998 47.9279852,8.86880757 C49.2596024,8.8500524 49.9347785,8.37414705 49.9535336,7.44107725 C49.9629112,6.67680399 49.5174826,6.21730917 48.6172343,6.062579 C48.2046205,6.00631349 47.7521588,5.94301573 47.2598355,5.87268384 C46.3783425,5.72733126 45.7078551,5.40146503 45.2483534,4.89507539 C44.7747853,4.37461937 44.5380048,3.74164181 44.5380048,2.99612373 C44.5380048,2.10056427 44.8357387,1.37850099 45.4312154,0.829912207 C46.007937,0.286012222 46.8261191,0.00937758595 47.8857863,0 C49.161138,0.0281327579 50.2700209,0.382131317 51.2124683,1.0620063 L50.3473903,2.34204038 C49.5784282,1.83565074 48.7321138,1.57308227 47.8084216,1.5543271 C47.3301647,1.5543271 46.9316233,1.67388953 46.6127854,1.91301797 C46.2798811,2.161524 46.1087427,2.53193309 46.0993651,3.02425635 C46.0993651,3.31965031 46.2142388,3.5869075 46.4439896,3.82603594 C46.6737405,4.06985317 47.0418052,4.23864719 47.5481949,4.33242305 C47.8295225,4.37931098 48.2139977,4.43323129 48.7016322,4.4941856 C49.6628347,4.6254718 50.3731762,4.97009291 50.8326779,5.52805928 C51.2874908,6.07664806 51.5148939,6.71431433 51.5148939,7.44107725 C51.4633172,9.40099271 50.2630042,10.3950019 47.9139189,10.4231347 C46.39475,10.4231347 45.0889407,9.9542624 43.996452,9.01650381 L45.0162593,7.8490002 Z" id="path-12"></path>
        <path d="M53.3553593,7.8490002 C54.1712093,8.51949759 55.1417749,8.85942998 56.2670852,8.86880757 C57.5987024,8.8500524 58.2738785,8.37414705 58.2926336,7.44107725 C58.3020112,6.67680399 57.8565826,6.21730917 56.9563343,6.062579 C56.5437205,6.00631349 56.0912588,5.94301573 55.5989355,5.87268384 C54.7174425,5.72733126 54.0469551,5.40146503 53.5874534,4.89507539 C53.1138853,4.37461937 52.8771048,3.74164181 52.8771048,2.99612373 C52.8771048,2.10056427 53.1748387,1.37850099 53.7703154,0.829912207 C54.347037,0.286012222 55.1652191,0.00937758595 56.2248863,0 C57.500238,0.0281327579 58.6091209,0.382131317 59.5515683,1.0620063 L58.6864903,2.34204038 C57.9175282,1.83565074 57.0712138,1.57308227 56.1475216,1.5543271 C55.6692647,1.5543271 55.2707233,1.67388953 54.9518854,1.91301797 C54.6189811,2.161524 54.4478427,2.53193309 54.4384651,3.02425635 C54.4384651,3.31965031 54.5533388,3.5869075 54.7830896,3.82603594 C55.0128405,4.06985317 55.3809052,4.23864719 55.8872949,4.33242305 C56.1686225,4.37931098 56.5530977,4.43323129 57.0407322,4.4941856 C58.0019347,4.6254718 58.7122762,4.97009291 59.1717779,5.52805928 C59.6265908,6.07664806 59.8539939,6.71431433 59.8539939,7.44107725 C59.8024172,9.40099271 58.6021042,10.3950019 56.2530189,10.4231347 C54.73385,10.4231347 53.4280407,9.9542624 52.335552,9.01650381 L53.3553593,7.8490002 Z" id="path-13"></path>
        <path d="M3.71350547,0.0843978516 C4.11674166,0.0843978516 4.50590564,0.121907633 4.88100908,0.19692832 C5.25611252,0.295392973 5.63589905,0.497008046 6.02038008,0.80177959 C6.34390679,1.03153045 6.60647526,1.35974103 6.80809336,1.78642119 C7.01908904,2.19903497 7.1245853,2.68666213 7.1245853,3.24931729 C7.1245853,4.00890175 6.85732811,4.70048834 6.32280571,5.3240978 C5.77421693,5.98052882 4.97244536,6.31811685 3.91746694,6.33687202 L1.5543271,6.33687202 L1.5543271,10.3387368 L0,10.3387368 L0,0.0843978516 L3.71350547,0.0843978516 Z M3.79790332,1.5543271 L1.5543271,1.5543271 L1.5543271,4.86694277 L3.85416855,4.86694277 C4.43089009,4.85756519 4.86459694,4.67939373 5.1553021,4.33242305 C5.43194089,3.99482995 5.5702582,3.61973214 5.5702582,3.20711836 C5.5702582,2.86483647 5.51399353,2.57648003 5.4014625,2.34204038 C5.28424268,2.1310447 5.12013738,1.96459504 4.9091417,1.84268643 C4.59030378,1.64106833 4.21989469,1.54494951 3.79790332,1.5543271 Z" id="path-14"></path>
        <path d="M12.5401141,0.0843978516 C13.3934744,0.0843978516 14.0897497,0.309456538 14.6289609,0.759580664 C15.2807032,1.2706591 15.6206356,1.99975547 15.6487683,2.94689165 C15.6300131,4.33946316 14.9689032,5.28658514 13.6654188,5.78828599 L16.042625,10.3387368 L14.1929054,10.3387368 L12.0759259,5.95708169 L10.0925764,5.95708169 L10.0925764,10.3387368 L8.53824932,10.3387368 L8.53824932,0.0843978516 L12.5401141,0.0843978516 Z M12.5260478,1.46992925 L10.0925764,1.46992925 L10.0925764,4.57858345 L12.44165,4.57858345 C13.0230603,4.56920586 13.4591115,4.40041185 13.7498167,4.07219634 C14.035833,3.76742479 14.1788391,3.39232698 14.1788391,2.94689165 C14.1694615,2.41236925 13.9983231,2.02554963 13.6654188,1.78642119 C13.4028464,1.57542551 13.0230599,1.46992925 12.5260478,1.46992925 Z" id="path-15"></path>
        <path d="M20.6352747,0 C21.4511247,0.00937758595 22.1309895,0.201615214 22.6748895,0.576718652 C23.2141006,0.947133297 23.6032646,1.36911834 23.8423931,1.84268643 C24.0158784,2.09119245 24.1354408,2.41705868 24.2010839,2.82029487 C24.2620382,3.22353107 24.2925149,4.02061392 24.2925149,5.21156733 C24.2925149,6.38376558 24.2620382,7.1761597 24.2010839,7.58877349 C24.1354408,8.00138727 24.0158784,8.33194221 23.8423931,8.58044824 C23.6032646,9.05401633 23.2141006,9.47131265 22.6748895,9.83234971 C22.1309895,10.2074531 21.4511247,10.4043795 20.6352747,10.4231347 C19.8288023,10.4043795 19.1559706,10.2074531 18.6167594,9.83234971 C18.0681706,9.47131265 17.6696292,9.05401633 17.4211232,8.58044824 C17.3461025,8.42571807 17.278116,8.27802331 17.2171617,8.13735952 C17.1608962,7.99200694 17.114009,7.80914676 17.0764986,7.58877349 C17.0115769,7.20789923 16.9766195,6.50342515 16.9716256,5.47533255 L16.9710013,5.21156733 C16.9710013,4.02061392 17.0061667,3.22353107 17.0764986,2.82029487 C17.1515193,2.41705868 17.266393,2.09119245 17.4211232,1.84268643 C17.6696292,1.36911834 18.0681706,0.947133297 18.6167594,0.576718652 C19.1559706,0.201615214 19.8288023,0.00937758595 20.6352747,0 Z M20.6352747,1.5543271 C20.2695489,1.56370469 19.9554044,1.63637989 19.692832,1.77235488 C19.4255708,1.91301867 19.2098896,2.08884577 19.0457818,2.29984146 C18.8441637,2.52021472 18.7105351,2.80388244 18.644892,3.15085313 C18.5698714,3.51657898 18.5323616,4.20347684 18.5323616,5.21156733 C18.5323616,6.21965782 18.5698714,6.90186697 18.644892,7.25821523 C18.7105351,7.6145635 18.8441637,7.90291994 19.0457818,8.12329321 C19.2098896,8.3342889 19.4255708,8.50542727 19.692832,8.63671348 C19.9554044,8.79144364 20.2695489,8.86880757 20.6352747,8.86880757 C21.0056894,8.86880757 21.3268669,8.79144364 21.5988168,8.63671348 C21.8567005,8.50542727 22.0630043,8.3342889 22.2177344,8.12329321 C22.4193525,7.90291994 22.5576698,7.6145635 22.6326905,7.25821523 C22.7030224,6.90186697 22.7381878,6.21965782 22.7381878,5.21156733 C22.7381878,4.20347684 22.7030224,3.51657898 22.6326905,3.15085313 C22.5576698,2.80388244 22.4193525,2.52021472 22.2177344,2.29984146 C22.0630043,2.08884577 21.8567005,1.91301867 21.5988168,1.77235488 C21.3268669,1.63637989 21.0056894,1.56370469 20.6352747,1.5543271 Z" id="path-16"></path>
        <path d="M62.0379734,0 C62.8538234,0.00937758595 63.5336881,0.201615214 64.0775881,0.576718652 C64.6167993,0.947133297 65.0059633,1.36911834 65.2450917,1.84268643 C65.4185771,2.09119245 65.5381395,2.41705868 65.6037826,2.82029487 C65.6647369,3.22353107 65.6952136,4.02061392 65.6952136,5.21156733 C65.6952136,6.38376558 65.6647369,7.1761597 65.6037826,7.58877349 C65.5381395,8.00138727 65.4185771,8.33194221 65.2450917,8.58044824 C65.0059633,9.05401633 64.6167993,9.47131265 64.0775881,9.83234971 C63.5336881,10.2074531 62.8538234,10.4043795 62.0379734,10.4231347 C61.231501,10.4043795 60.5586693,10.2074531 60.0194581,9.83234971 C59.4708693,9.47131265 59.0723279,9.05401633 58.8238219,8.58044824 C58.7488012,8.42571807 58.6808147,8.27802331 58.6198604,8.13735952 C58.5635949,7.99200694 58.5167077,7.80914676 58.4791973,7.58877349 C58.4142756,7.20789923 58.3793182,6.50342515 58.3743242,5.47533255 L58.3737,5.21156733 C58.3737,4.02061392 58.4088654,3.22353107 58.4791973,2.82029487 C58.554218,2.41705868 58.6690917,2.09119245 58.8238219,1.84268643 C59.0723279,1.36911834 59.4708693,0.947133297 60.0194581,0.576718652 C60.5586693,0.201615214 61.231501,0.00937758595 62.0379734,0 Z M62.0379734,1.5543271 C61.6722475,1.56370469 61.3581031,1.63637989 61.0955307,1.77235488 C60.8282695,1.91301867 60.6125883,2.08884577 60.4484805,2.29984146 C60.2468624,2.52021472 60.1132338,2.80388244 60.0475907,3.15085313 C59.97257,3.51657898 59.9350603,4.20347684 59.9350603,5.21156733 C59.9350603,6.21965782 59.97257,6.90186697 60.0475907,7.25821523 C60.1132338,7.6145635 60.2468624,7.90291994 60.4484805,8.12329321 C60.6125883,8.3342889 60.8282695,8.50542727 61.0955307,8.63671348 C61.3581031,8.79144364 61.6722475,8.86880757 62.0379734,8.86880757 C62.408388,8.86880757 62.7295655,8.79144364 63.0015155,8.63671348 C63.2593991,8.50542727 63.4657029,8.3342889 63.6204331,8.12329321 C63.8220512,7.90291994 63.9603685,7.6145635 64.0353892,7.25821523 C64.1057211,6.90186697 64.1408865,6.21965782 64.1408865,5.21156733 C64.1408865,4.20347684 64.1057211,3.51657898 64.0353892,3.15085313 C63.9603685,2.80388244 63.8220512,2.52021472 63.6204331,2.29984146 C63.4657029,2.08884577 63.2593991,1.91301867 63.0015155,1.77235488 C62.7295655,1.63637989 62.408388,1.56370469 62.0379734,1.5543271 Z" id="path-17"></path>
        <path d="M70.7555263,0 C71.6176,0 72.3209847,0.225058687 72.8657016,0.675182813 C73.5240985,1.18626125 73.8675018,1.91535762 73.8959218,2.8624938 C73.8769752,4.25506531 73.2091149,5.20218729 71.8923211,5.70388813 L74.2938,10.254339 L72.4251936,10.254339 L70.2865985,5.87268384 L68.2829978,5.87268384 L68.2829978,10.254339 L66.7128,10.254339 L66.7128,0 L70.7555263,0 Z M70.7413164,1.3855314 L68.2829978,1.3855314 L68.2829978,4.4941856 L70.6560568,4.4941856 C71.2434037,4.48480801 71.6839072,4.31601399 71.9775807,3.98779849 C72.2665175,3.68302694 72.4109837,3.30792913 72.4109837,2.8624938 C72.4015104,2.3279714 72.2286245,1.94115178 71.8923211,1.70202334 C71.6270677,1.49102766 71.2434033,1.3855314 70.7413164,1.3855314 Z" id="path-18"></path>
        <path d="M33.0206594,7.46920986 C32.7955974,8.42103484 32.3665792,9.15247557 31.7335922,9.663554 C31.08185,10.1699436 30.3105551,10.4231347 29.4196844,10.4231347 C28.613212,10.4043795 27.9403803,10.2074531 27.4011691,9.83234971 C26.8525804,9.47131265 26.4540389,9.05401633 26.2055329,8.58044824 C26.1305122,8.42571807 26.0625257,8.27802331 26.0015714,8.13735952 C25.9453059,7.99200694 25.8984187,7.80914676 25.8609083,7.58877349 C25.7905765,7.1761597 25.755411,6.38376558 25.755411,5.21156733 C25.755411,4.02061392 25.7905765,3.22353107 25.8609083,2.82029487 C25.935929,2.41705868 26.0508027,2.09119245 26.2055329,1.84268643 C26.4540389,1.36911834 26.8525804,0.947133297 27.4011691,0.576718652 C27.9403803,0.201615214 28.613212,0.00937758595 29.4196844,0 C30.4090197,0.00937758595 31.21548,0.302422751 31.8390895,0.879144287 C32.462699,1.46055462 32.8565517,2.18027354 33.0206594,3.03832266 L31.3749013,3.03832266 C31.2483039,2.62570887 31.0185565,2.27405468 30.6856522,1.98334951 C30.3386815,1.70671073 29.9166965,1.56370469 29.4196844,1.5543271 C29.0539586,1.56370469 28.7398142,1.63637989 28.4772417,1.77235488 C28.2099805,1.91301867 27.9942993,2.08884577 27.8301916,2.29984146 C27.6285735,2.52021472 27.4949449,2.80388244 27.4293018,3.15085313 C27.3542811,3.51657898 27.3167713,4.20347684 27.3167713,5.21156733 C27.3167713,6.21965782 27.3542811,6.90186697 27.4293018,7.25821523 C27.4949449,7.6145635 27.6285735,7.90291994 27.8301916,8.12329321 C27.9942993,8.3342889 28.2099805,8.50542727 28.4772417,8.63671348 C28.7398142,8.79144364 29.0539586,8.86880757 29.4196844,8.86880757 C30.2917999,8.86880757 30.9435324,8.40227967 31.3749013,7.46920986 L33.0206594,7.46920986 Z" id="path-19"></path>
        <polygon id="path-20" points="34.1178315 0.0843978516 40.6656981 0.0843978516 40.6656981 1.5543271 35.6721586 1.5543271 35.6721586 4.48011929 39.9342501 4.48011929 39.9342501 5.85861753 35.6721586 5.85861753 35.6721586 8.86880757 40.6656981 8.86880757 40.6656981 10.3387368 34.1178315 10.3387368"></polygon>
        <path d="M42.7153074,7.8490002 C43.5311574,8.51949759 44.5017229,8.85942998 45.6270333,8.86880757 C46.9586505,8.8500524 47.6338265,8.37414705 47.6525817,7.44107725 C47.6619593,6.67680399 47.2165306,6.21730917 46.3162824,6.062579 C45.9036686,6.00631349 45.4512069,5.94301573 44.9588836,5.87268384 C44.0773905,5.72733126 43.4069032,5.40146503 42.9474015,4.89507539 C42.4738334,4.37461937 42.2370529,3.74164181 42.2370529,2.99612373 C42.2370529,2.10056427 42.5347868,1.37850099 43.1302635,0.829912207 C43.706985,0.286012222 44.5251671,0.00937758595 45.5848343,0 C46.860186,0.0281327579 47.9690689,0.382131317 48.9115163,1.0620063 L48.0464383,2.34204038 C47.2774763,1.83565074 46.4311618,1.57308227 45.5074696,1.5543271 C45.0292127,1.5543271 44.6306713,1.67388953 44.3118334,1.91301797 C43.9789291,2.161524 43.8077907,2.53193309 43.7984131,3.02425635 C43.7984131,3.31965031 43.9132868,3.5869075 44.1430377,3.82603594 C44.3727886,4.06985317 44.7408533,4.23864719 45.2472429,4.33242305 C45.5285705,4.37931098 45.9130458,4.43323129 46.4006802,4.4941856 C47.3618828,4.6254718 48.0722243,4.97009291 48.531726,5.52805928 C48.9865389,6.07664806 49.2139419,6.71431433 49.2139419,7.44107725 C49.1623652,9.40099271 47.9620522,10.3950019 45.6129669,10.4231347 C44.093798,10.4231347 42.7879888,9.9542624 41.6955,9.01650381 L42.7153074,7.8490002 Z" id="path-21"></path>
        <path d="M50.9792637,7.8490002 C51.7951136,8.51949759 52.7656792,8.85942998 53.8909896,8.86880757 C55.2226068,8.8500524 55.8977828,8.37414705 55.916538,7.44107725 C55.9259156,6.67680399 55.4804869,6.21730917 54.5802387,6.062579 C54.1676249,6.00631349 53.7151632,5.94301573 53.2228399,5.87268384 C52.3413468,5.72733126 51.6708595,5.40146503 51.2113578,4.89507539 C50.7377897,4.37461937 50.5010092,3.74164181 50.5010092,2.99612373 C50.5010092,2.10056427 50.7987431,1.37850099 51.3942198,0.829912207 C51.9709413,0.286012222 52.7891234,0.00937758595 53.8487906,0 C55.1241423,0.0281327579 56.2330252,0.382131317 57.1754726,1.0620063 L56.3103946,2.34204038 C55.5414326,1.83565074 54.6951181,1.57308227 53.7714259,1.5543271 C53.293169,1.5543271 52.8946276,1.67388953 52.5757897,1.91301797 C52.2428854,2.161524 52.071747,2.53193309 52.0623694,3.02425635 C52.0623694,3.31965031 52.1772431,3.5869075 52.406994,3.82603594 C52.6367448,4.06985317 53.0048096,4.23864719 53.5111992,4.33242305 C53.7925268,4.37931098 54.1770021,4.43323129 54.6646365,4.4941856 C55.6258391,4.6254718 56.3361806,4.97009291 56.7956823,5.52805928 C57.2504952,6.07664806 57.4778982,6.71431433 57.4778982,7.44107725 C57.4263215,9.40099271 56.2260085,10.3950019 53.8769232,10.4231347 C52.3577543,10.4231347 51.0519451,9.9542624 49.9594563,9.01650381 L50.9792637,7.8490002 Z" id="path-22"></path>
        <path d="M533.39109,48.3725546 L533.897477,48.3725546 C534.399178,48.3725546 534.788342,48.2342373 535.064981,47.9575985 C535.34162,47.6903373 535.479937,47.3433718 535.479937,46.9166917 C535.47056,46.4853227 535.327554,46.1313241 535.050915,45.8546854 C534.774276,45.5874242 534.417933,45.4491068 533.981875,45.4397292 C533.667726,45.4397292 533.381714,45.5405368 533.123831,45.7421549 C532.851881,45.943773 532.66902,46.255573 532.575244,46.6775644 L531.105315,46.6775644 C531.180336,45.9179799 531.487447,45.2779693 532.026658,44.7575133 C532.556492,44.2417461 533.18947,43.9791776 533.92561,43.9698 C534.85868,43.9791776 535.599498,44.2769115 536.148087,44.8630106 C536.673232,45.4350433 536.940489,46.1102194 536.949866,46.888559 C536.949866,47.2824176 536.879536,47.6622042 536.738872,48.02793 C536.574764,48.3936559 536.281719,48.7195221 535.859728,49.0055385 C536.291096,49.2868661 536.602897,49.6244541 536.795137,50.0183127 C536.978,50.4121713 537.06943,50.8247789 537.06943,51.2561479 C537.060052,52.2173504 536.762319,52.9745791 536.176219,53.5278567 C535.599498,54.0952006 534.85868,54.3835571 533.953743,54.3929347 C533.255113,54.3929347 532.636201,54.167876 532.09699,53.7177519 C531.557779,53.2676277 531.208469,52.6158953 531.04905,51.762535 L532.518979,51.762535 C532.650265,52.1048168 532.83547,52.3814515 533.074598,52.5924472 C533.318416,52.8128204 533.641938,52.9230054 534.045174,52.9230054 C534.476543,52.9230054 534.839919,52.7753107 535.135313,52.4799167 C535.435395,52.2032779 535.590123,51.8094252 535.599501,51.2983468 C535.590123,50.7778908 535.435395,50.3746606 535.135313,50.0886442 C534.839919,49.8120055 534.464821,49.6736881 534.010008,49.6736881 L533.39109,49.6736881 L533.39109,48.3725546 Z M537.786812,44.0541979 L539.43257,44.0541979 L541.760544,51.8609991 L541.788677,51.8609991 L544.123684,44.0541979 L545.769442,44.0541979 L542.379462,54.3085368 L541.169759,54.3085368 L537.786812,44.0541979 Z" id="path-23"></path>
    </defs>
    <g id="Symbols" stroke="none" stroke-width="1" fill="none" fill-rule="evenodd">
        <g id="Board/White" transform="translate(2.000000, 1.000000)">
            <g id="bit">
                <polyline id="LONG-LINE-BY-PADS" stroke="#929292" stroke-width="1.2" stroke-linejoin="round" transform="translate(272.916000, 357.148150) rotate(90.000000) translate(-272.916000, -357.148150) " points="277.08555 121 268.74645 121 268.74645 593.2963 277.08555 593.2963"></polyline>
                <g id="Pad" transform="translate(361.000000, 361.800000)" fill="#F8F8F8" fill-rule="nonzero">
                    <path d="M30,3.02830189 C45.9972134,3.02830189 58.9655172,15.1873367 58.9655172,30.1862662 C58.9655172,30.7562255 58.946791,31.322084 58.9098839,31.8833303 L58.9655172,31.79114 L58.9655172,104.981132 L1.03448276,104.981132 L1.03448276,30.1862662 C1.03448276,15.4858154 13.4917836,3.5133561 29.0486431,3.04267374 L29.5210022,3.03194028 L30,3.02830189 Z M30,10.0943396 C18.0020899,10.0943396 8.27586207,19.5850582 8.27586207,31.2924528 C8.27586207,42.9998475 18.0020899,52.490566 30,52.490566 C41.9979101,52.490566 51.7241379,42.9998475 51.7241379,31.2924528 C51.7241379,19.5850582 41.9979101,10.0943396 30,10.0943396 Z" id="Combined-Shape"></path>
                </g>
                <g id="Pad/Corner/Right" transform="translate(481.000000, 361.800000)" fill="#F8F8F8" opacity="0.652041481">
                    <g id="Pad/Gradient">
                        <path d="M28,0 C43.463973,0 56,12.0453989 56,26.9041515 C56,27.4687841 55.981898,28.0293542 55.9462211,28.5853553 L56,28.4940266 L56,101 L49,103.2 C38.2574942,104.132649 29.9241609,104.465983 24,104.2 C18.0758391,103.934017 10.0758391,103.934017 0,104.2 L0,26.9041515 C0,12.3410881 12.0420575,0.480520994 27.080355,0.0142375412 L27.5369688,0.00360438763 L28,0 Z M28,7 C16.4020203,7 7,16.4020203 7,28 C7,39.5979797 16.4020203,49 28,49 C39.5979797,49 49,39.5979797 49,28 C49,16.4020203 39.5979797,7 28,7 Z" id="Combined-Shape" fill-rule="nonzero"></path>
                    </g>
                </g>
                <g id="Pad" transform="translate(243.000000, 361.800000)" fill="#F8F8F8" fill-rule="nonzero">
                    <path d="M30,3.02830189 C45.9972134,3.02830189 58.9655172,15.1873367 58.9655172,30.1862662 C58.9655172,30.7562255 58.946791,31.322084 58.9098839,31.8833303 L58.9655172,31.79114 L58.9655172,104.981132 L1.03448276,104.981132 L1.03448276,30.1862662 C1.03448276,15.4858154 13.4917836,3.5133561 29.0486431,3.04267374 L29.5210022,3.03194028 L30,3.02830189 Z M30,10.0943396 C18.0020899,10.0943396 8.27586207,19.5850582 8.27586207,31.2924528 C8.27586207,42.9998475 18.0020899,52.490566 30,52.490566 C41.9979101,52.490566 51.7241379,42.9998475 51.7241379,31.2924528 C51.7241379,19.5850582 41.9979101,10.0943396 30,10.0943396 Z" id="Combined-Shape"></path>
                </g>
                <g id="Pad" transform="translate(125.000000, 361.800000)" fill="#F8F8F8" fill-rule="nonzero">
                    <path d="M30,3.02830189 C45.9972134,3.02830189 58.9655172,15.1873367 58.9655172,30.1862662 C58.9655172,30.7562255 58.946791,31.322084 58.9098839,31.8833303 L58.9655172,31.79114 L58.9655172,104.981132 L1.03448276,104.981132 L1.03448276,30.1862662 C1.03448276,15.4858154 13.4917836,3.5133561 29.0486431,3.04267374 L29.5210022,3.03194028 L30,3.02830189 Z M30,10.0943396 C18.0020899,10.0943396 8.27586207,19.5850582 8.27586207,31.2924528 C8.27586207,42.9998475 18.0020899,52.490566 30,52.490566 C41.9979101,52.490566 51.7241379,42.9998475 51.7241379,31.2924528 C51.7241379,19.5850582 41.9979101,10.0943396 30,10.0943396 Z" id="Combined-Shape"></path>
                </g>
                <g id="Pad/Corner/Left" transform="translate(9.000000, 361.800000)" fill="#F8F8F8" opacity="0.65">
                    <g id="Pad/Gradient">
                        <path d="M28,0 C43.463973,0 56,12.0453989 56,26.9041515 C56,27.4687841 55.981898,28.0293542 55.9462211,28.5853553 L56,28.4940266 L56,104.2 L21,104.2 L8,98.2 L0,92.2 L0,26.9041515 C0,12.3410881 12.0420575,0.480520994 27.080355,0.0142375412 L27.5369688,0.00360438763 L28,0 Z M28,7 C16.4020203,7 7,16.4020203 7,28 C7,39.5979797 16.4020203,49 28,49 C39.5979797,49 49,39.5979797 49,28 C49,16.4020203 39.5979797,7 28,7 Z" id="Combined-Shape" fill-rule="nonzero"></path>
                    </g>
                </g>
                <g id="Group-9" transform="translate(282.392250, 252.447300)" fill="#FFFFFF" fill-rule="nonzero">
                    <path d="M43.7775195,0.116049705 C52.9102333,0.116049705 62.8453913,-0.0652779593 69.9869131,0.0253858731 C77.1284348,0.116049705 87.8407174,9.66644022 87.8407174,22.8782554 C87.8407174,36.0900706 79.9850435,47.8735815 64.9878478,47.8735815 L64.9878478,47.8735815 L24.2811739,47.8735815 C7.85567388,47.8735815 6.82397763e-14,32.5521717 6.65156087e-14,23.1662405 C6.47914411e-14,13.7803092 7.1415217,0.0253858731 21.4245652,0.0253858731 C30.5330829,0.085828428 37.9840677,0.116049705 43.7775195,0.116049705 Z M63.969707,8.22488418 L62.3831791,8.22536036 L62.3831791,8.22536036 L61.4958024,8.22595179 C61.3372992,8.22609577 61.1797071,8.22625532 61.0228024,8.22643091 L60.8965733,8.22671562 C60.1565152,8.22761938 59.4524169,8.22882802 58.7800402,8.23013352 C58.4794431,8.2307926 58.1773854,8.23152009 57.8709406,8.23240611 C57.2188958,8.23406875 56.59504,8.23594148 55.9955534,8.23799047 C55.8900066,8.23834878 55.7837898,8.23871543 55.6755327,8.23904082 C55.51367,8.23960308 55.3533999,8.24017496 55.1963524,8.24081467 C54.9330031,8.24178027 54.6649495,8.24279609 54.389214,8.24380827 C53.7471881,8.24632594 53.1273195,8.24894469 52.5207636,8.25158252 L52.5207636,8.25158252 C52.2449034,8.25275768 51.978887,8.25391891 51.7143289,8.25510447 L51.7143289,8.25510447 L51.5105293,8.25599168 L51.4976977,8.25601863 L51.2076008,8.2573067 C51.0039018,8.25818909 50.8246301,8.25896135 50.6627141,8.25963275 L50.6627141,8.25963275 L50.4910341,8.26038279 L50.4910341,8.26038279 L50.3312487,8.26104119 L50.1649554,8.26175928 C50.0773936,8.26212491 49.9936372,8.26247171 49.9115838,8.26280865 L49.9115838,8.26280865 L49.8343407,8.26310697 L49.6689911,8.26377943 C49.5911255,8.26409413 49.5132629,8.26440595 49.4353832,8.26471465 L49.4353832,8.26471465 L49.1408715,8.26588094 L48.7036438,8.26751202 C48.5539417,8.26806133 48.4039479,8.26859647 48.252763,8.26912834 L48.252763,8.26912834 L48.1081105,8.26961228 C47.9307871,8.27021103 47.7528029,8.2707871 47.5723463,8.27135711 C47.4028891,8.2718808 47.2357565,8.27237275 47.0722143,8.27280637 C46.535693,8.27429366 45.9894569,8.27553454 45.4275215,8.27645748 L45.4275215,8.27645748 L45.2237284,8.27682559 C44.81875,8.27742937 44.4173345,8.27784157 44.0129584,8.27807474 L44.0129584,8.27807474 L42.2226982,8.27803324 L42.2226982,8.27803324 L42.021583,8.27791322 L41.1971739,8.27721495 C39.376391,8.27532389 37.3310256,8.27097513 35.0625688,8.2641722 L35.0625688,8.2641722 L34.5344694,8.26255088 C31.7009934,8.25372698 28.527182,8.24119258 25.0130353,8.22488418 L25.0130353,8.22488418 L24.91124,8.22564228 L24.7037,8.22704264 C22.3325928,8.2590594 20.2053226,8.64955286 18.3428427,9.36112307 C11.6628165,11.9497561 9.36554307,18.4912001 9.29793068,24.0413946 C9.2966543,24.125293 9.2966543,24.2094565 9.2966543,24.2938834 L9.2966543,24.2938834 L9.29843732,24.5791821 L9.30212268,24.768219 C9.4370764,30.6171518 12.1007038,36.5882748 19.8424822,38.388732 L19.8424822,38.388732 L20.0911432,38.4440569 L20.0911432,38.4440569 L20.3431104,38.4972519 C20.4357411,38.5160111 20.5294735,38.5343754 20.6239111,38.5521504 L20.6239111,38.5521504 L20.5256402,38.5333423 C20.6031437,38.5482829 20.6810317,38.5628124 20.7593039,38.5769297 L20.7593039,38.5769297 L20.936,38.607 L21.0367914,38.6249814 C21.4014743,38.6855365 21.774294,38.7373135 22.1551021,38.7803094 L22.732287,38.8382172 C22.8343454,38.8466932 22.9366259,38.8549582 23.0394568,38.862608 C23.2642893,38.8793339 23.491753,38.8931193 23.7215008,38.9041061 L23.7215008,38.9041061 C23.8035862,38.9077863 23.885665,38.9112572 23.9680742,38.914353 L23.9680742,38.914353 L23.8276454,38.9088551 C23.8841413,38.9112671 23.9408358,38.9135037 23.9977293,38.9155639 L24.013,38.915 L24.4795172,38.928663 L24.4795172,38.928663 L24.9992873,38.9334448 L63.2555377,38.9334448 L63.5342508,38.9313195 L63.7182175,38.9278581 L64.1548806,38.9111756 C68.0673932,38.7164956 71.5043332,37.2563493 74.0761997,34.9633304 L74.0761997,34.9633304 L74.2114548,34.8405855 C77.2966874,31.9759658 78.9766831,27.9560989 78.9259502,23.936232 L78.9259502,23.936232 L78.9243488,23.862971 L78.920405,23.6561386 L78.9136177,23.4667205 C78.7386248,19.0774407 76.8870087,14.5084347 73.3819162,11.5316512 L73.3819162,11.5316512 L73.2288456,11.4043328 C70.8066806,9.44756421 67.7365637,8.28969508 64.264984,8.22736601 C64.167045,8.22571448 64.0686193,8.22488418 63.969707,8.22488418 L63.969707,8.22488418 Z M23.9680742,38.914353 L24.1872133,38.9217505 L24.013,38.915 C24.0037539,38.9157816 24.0007413,38.915673 23.9977293,38.9155639 L23.9680742,38.914353 L23.9680742,38.914353 Z M22.8844672,38.8509753 C22.979095,38.8586038 23.0743171,38.8657149 23.1701364,38.8723036 L23.1701364,38.8723036 L23.0394568,38.862608 L23.0394568,38.862608 Z M21.0011389,38.6193695 C21.0606557,38.6293869 21.120444,38.6391759 21.1805046,38.6487348 L21.1805046,38.6487348 L21.0367914,38.6249814 L21.0367914,38.6249814 Z M20.8976503,38.6013832 L21.0011389,38.6193695 L20.936,38.607 L20.8976503,38.6013832 L20.8976503,38.6013832 Z M20.64,38.555 L20.8116019,38.5865341 L20.8116019,38.5865341 L20.88,38.598 L20.7593039,38.5769297 L20.7593039,38.5769297 L20.64,38.555 Z" id="Combined-Shape"></path>
                    <circle id="Top-Dot" transform="translate(62.858084, 23.365477) rotate(180.000000) translate(-62.858084, -23.365477) " cx="62.8580845" cy="23.3654775" r="4.99906522"></circle>
                    <circle id="Bottom-Top" transform="translate(27.864628, 23.365477) rotate(180.000000) translate(-27.864628, -23.365477) " cx="27.8646279" cy="23.3654775" r="4.99906522"></circle>
                    <circle id="Top-Dot" transform="translate(45.936465, 23.365477) rotate(180.000000) translate(-45.936465, -23.365477) " cx="45.9364652" cy="23.3654775" r="4.99906522"></circle>
                </g>
                <g id="USB" fill-rule="nonzero" transform="translate(293.836813, 123.475167) scale(-1, 1) translate(-293.836813, -123.475167) ">
                    <use fill="#000000" xlink:href="#path-1"></use>
                    <use fill="#FFFFFF" xlink:href="#path-1"></use>
                </g>
                <g id="BLEANTENNA" fill-rule="nonzero" transform="translate(326.454340, 139.310869) scale(-1, 1) translate(-326.454340, -139.310869) ">
                    <use fill="#000000" xlink:href="#path-2"></use>
                    <use fill="#FFFFFF" xlink:href="#path-2"></use>
                </g>
                <g id="RESET" fill-rule="nonzero" transform="translate(301.820384, 155.315367) scale(-1, 1) translate(-301.820384, -155.315367) ">
                    <use fill="#000000" xlink:href="#path-3"></use>
                    <use fill="#FFFFFF" xlink:href="#path-3"></use>
                </g>
                <g id="BATTERY" fill-rule="nonzero" transform="translate(309.582232, 171.151069) scale(-1, 1) translate(-309.582232, -171.151069) ">
                    <use fill="#000000" xlink:href="#path-4"></use>
                    <use fill="#FFFFFF" xlink:href="#path-4"></use>
                </g>
                <g id="PINS" fill-rule="nonzero" transform="translate(105.716268, 302.386767) scale(-1, 1) translate(-105.716268, -302.386767) ">
                    <use fill="#000000" xlink:href="#path-5"></use>
                    <use fill="#FFFFFF" xlink:href="#path-5"></use>
                </g>
                <g id="ACCELEROMETER" fill-rule="nonzero" transform="translate(145.415647, 286.466667) scale(-1, 1) translate(-145.415647, -286.466667) ">
                    <use fill="#000000" xlink:href="#path-6"></use>
                    <use fill="#FFFFFF" xlink:href="#path-6"></use>
                </g>
                <g id="COMPASS" transform="translate(121.351050, 271.593100) scale(-1, 1) translate(-121.351050, -271.593100) translate(91.351050, 266.093100)" fill-rule="nonzero">
                    <g id="Shape">
                        <use fill="#000000" xlink:href="#path-7"></use>
                        <use fill="#FFFFFF" xlink:href="#path-7"></use>
                    </g>
                    <g id="Shape">
                        <use fill="#000000" xlink:href="#path-8"></use>
                        <use fill="#FFFFFF" xlink:href="#path-8"></use>
                    </g>
                    <g id="Shape">
                        <use fill="#000000" xlink:href="#path-9"></use>
                        <use fill="#FFFFFF" xlink:href="#path-9"></use>
                    </g>
                    <g id="Path">
                        <use fill="#000000" xlink:href="#path-10"></use>
                        <use fill="#FFFFFF" xlink:href="#path-10"></use>
                    </g>
                    <g id="Path">
                        <use fill="#000000" xlink:href="#path-11"></use>
                        <use fill="#FFFFFF" xlink:href="#path-11"></use>
                    </g>
                    <g id="Path">
                        <use fill="#000000" xlink:href="#path-12"></use>
                        <use fill="#FFFFFF" xlink:href="#path-12"></use>
                    </g>
                    <g id="Path">
                        <use fill="#000000" xlink:href="#path-13"></use>
                        <use fill="#FFFFFF" xlink:href="#path-13"></use>
                    </g>
                </g>
                <g id="PROCESSOR" transform="translate(128.851050, 255.673000) scale(-1, 1) translate(-128.851050, -255.673000) translate(91.351050, 250.173000)" fill-rule="nonzero">
                    <g id="Combined-Shape">
                        <use fill="#000000" xlink:href="#path-14"></use>
                        <use fill="#FFFFFF" xlink:href="#path-14"></use>
                    </g>
                    <g id="Combined-Shape">
                        <use fill="#000000" xlink:href="#path-15"></use>
                        <use fill="#FFFFFF" xlink:href="#path-15"></use>
                    </g>
                    <g id="Combined-Shape">
                        <use fill="#000000" xlink:href="#path-16"></use>
                        <use fill="#FFFFFF" xlink:href="#path-16"></use>
                    </g>
                    <g id="Combined-Shape">
                        <use fill="#000000" xlink:href="#path-17"></use>
                        <use fill="#FFFFFF" xlink:href="#path-17"></use>
                    </g>
                    <g id="Combined-Shape">
                        <use fill="#000000" xlink:href="#path-18"></use>
                        <use fill="#FFFFFF" xlink:href="#path-18"></use>
                    </g>
                    <g id="Path">
                        <use fill="#000000" xlink:href="#path-19"></use>
                        <use fill="#FFFFFF" xlink:href="#path-19"></use>
                    </g>
                    <g id="Path">
                        <use fill="#000000" xlink:href="#path-20"></use>
                        <use fill="#FFFFFF" xlink:href="#path-20"></use>
                    </g>
                    <g id="Path">
                        <use fill="#000000" xlink:href="#path-21"></use>
                        <use fill="#FFFFFF" xlink:href="#path-21"></use>
                    </g>
                    <g id="Path">
                        <use fill="#000000" xlink:href="#path-22"></use>
                        <use fill="#FFFFFF" xlink:href="#path-22"></use>
                    </g>
                </g>
                <g id="3V" fill-rule="nonzero" transform="translate(538.409246, 49.181367) rotate(-270.000000) translate(-538.409246, -49.181367) ">
                    <use fill="#000000" xlink:href="#path-23"></use>
                    <use fill="#FFFFFF" xlink:href="#path-23"></use>
                </g>
                <path d="M248.27775,55.3413 L245.24535,55.3413 C244.407976,55.3413 243.72915,54.6624741 243.72915,53.8251 L243.72915,4.5486 L313.47435,4.5486 L313.47435,53.8251 C313.47435,54.6624741 312.795524,55.3413 311.95815,55.3413 L308.92575,55.3413 L310.44195,55.3413" id="Shape" stroke="#FFFFFF" stroke-width="1.5162" fill-rule="nonzero"></path>
                <path d="M248.27775,55.3413 L245.24535,55.3413 C244.407976,55.3413 243.72915,54.6624741 243.72915,53.8251 L243.72915,4.5486 L313.47435,4.5486 L313.47435,53.8251 C313.47435,54.6624741 312.795524,55.3413 311.95815,55.3413 L308.92575,55.3413 L310.44195,55.3413" id="Shape" stroke="#FFFFFF" stroke-width="1.5162" fill-rule="nonzero"></path>
                <path d="M248.27775,55.3413 L245.24535,55.3413 C244.407976,55.3413 243.72915,54.6624741 243.72915,53.8251 L243.72915,4.5486 L313.47435,4.5486 L313.47435,53.8251 C313.47435,54.6624741 312.795524,55.3413 311.95815,55.3413 L308.92575,55.3413 L310.44195,55.3413" id="Path" stroke="#FFFFFF" stroke-width="1.5162" fill-rule="nonzero"></path>
                <g id="Group-10" transform="translate(274.811250, 28.049700)" fill="#FFFFFF" fill-rule="nonzero">
                    <g id="Group-8" transform="translate(0.000000, 15.162000)">
                        <polygon id="Path-19" transform="translate(4.169550, 5.306700) rotate(90.000000) translate(-4.169550, -5.306700) " points="3.0324 1.5162 3.0324 9.0972 5.3067 9.0972 5.3067 1.5162"></polygon>
                        <polygon id="Path-19" transform="translate(4.169550, 1.516200) rotate(90.000000) translate(-4.169550, -1.516200) " points="3.0324 -2.2743 3.0324 5.3067 5.3067 5.3067 5.3067 -2.2743"></polygon>
                    </g>
                    <g id="Group-8" transform="translate(0.000000, 7.581000)">
                        <polygon id="Path-19" transform="translate(4.169550, 5.306700) rotate(90.000000) translate(-4.169550, -5.306700) " points="3.0324 1.5162 3.0324 9.0972 5.3067 9.0972 5.3067 1.5162"></polygon>
                        <polygon id="Path-19" transform="translate(4.169550, 1.516200) rotate(90.000000) translate(-4.169550, -1.516200) " points="3.0324 -2.2743 3.0324 5.3067 5.3067 5.3067 5.3067 -2.2743"></polygon>
                    </g>
                    <g id="Group-8">
                        <polygon id="Path-19" transform="translate(4.169550, 5.306700) rotate(90.000000) translate(-4.169550, -5.306700) " points="3.0324 1.5162 3.0324 9.0972 5.3067 9.0972 5.3067 1.5162"></polygon>
                        <polygon id="Path-19" transform="translate(4.169550, 1.516200) rotate(90.000000) translate(-4.169550, -1.516200) " points="3.0324 -2.2743 3.0324 5.3067 5.3067 5.3067 5.3067 -2.2743"></polygon>
                    </g>
                </g>
                <rect id="Rectangle" fill="#FFFFFF" x="265.71405" y="54.5832" width="26.5335" height="1.5162"></rect>
                <path d="M262.68165,56.0994 L262.68165,58.3737 L255.10065,58.3737 L255.10065,56.0994 L250.55205,56.0994 L250.55205,45.486 C250.55205,44.2299388 251.570289,43.2117 252.82635,43.2117 L262.68165,43.2117 C263.937711,43.2117 264.95595,44.2299388 264.95595,45.486 L264.95595,56.0994 L262.68165,56.0994 Z" id="Path" stroke="#FFFFFF" stroke-width="1.5162" fill-rule="nonzero"></path>
                <path d="M304.37715,56.0994 L304.37715,58.3737 L296.79615,58.3737 L296.79615,56.0994 L292.24755,56.0994 L292.24755,45.486 C292.24755,44.2299388 293.265789,43.2117 294.52185,43.2117 L304.37715,43.2117 C305.633211,43.2117 306.65145,44.2299388 306.65145,45.486 L306.65145,56.0994 L304.37715,56.0994 Z" id="Path" stroke="#FFFFFF" stroke-width="1.5162" fill-rule="nonzero" transform="translate(299.449500, 50.792700) scale(-1, 1) translate(-299.449500, -50.792700) "></path>
                <path d="M238.24255,1.77201222 C239.367564,2.06774385 240.287771,2.6602413 240.965309,3.536164 C241.208178,3.85014629 241.465468,4.18718493 241.737212,4.54731549 L243.72915,4.5486 L243.72915,53.8251 L240.69675,53.8251 L240.652022,6.61702932 L240.519899,6.71588267 C240.107939,6.16197076 239.725924,5.65566959 239.373952,5.19708684 L239.166374,4.92766426 C238.80199,4.45658799 238.313935,4.14234199 237.66435,3.97158601 L238.24255,1.77201222 Z" id="Path" stroke="#FFFFFF" stroke-width="1.2" stroke-linejoin="round" fill-rule="nonzero"></path>
                <path d="M314.05255,1.77201222 C315.177564,2.06774385 316.097771,2.6602413 316.775309,3.536164 C317.018178,3.85014629 317.275468,4.18718493 317.547212,4.54731549 L319.53915,4.5486 L319.53915,53.8251 L316.50675,53.8251 L316.462022,6.61702932 L316.329899,6.71588267 C315.917939,6.16197076 315.535924,5.65566959 315.183952,5.19708684 L314.976374,4.92766426 C314.61199,4.45658799 314.123935,4.14234199 313.47435,3.97158601 L314.05255,1.77201222 Z" id="Path" stroke="#FFFFFF" stroke-width="1.2" stroke-linejoin="round" fill-rule="nonzero" transform="translate(316.506750, 27.798556) scale(-1, 1) translate(-316.506750, -27.798556) "></path>
                <path d="M279.923272,37.0108817 L276.46666,35.9271713 C276.150512,35.828053 275.935354,35.535112 275.935354,35.20379 L275.935354,-29.4674047 C275.935354,-29.7727035 276.118488,-30.0482121 276.399983,-30.1663973 L279.856595,-31.6176479 C280.242638,-31.7797272 280.686978,-31.5981687 280.849058,-31.2121258 C280.888071,-31.1192035 280.908165,-31.0194351 280.908165,-30.9186553 L280.908165,36.2875004 C280.908165,36.7061875 280.568752,37.0456004 280.150065,37.0456004 C280.073144,37.0456004 279.99667,37.0338935 279.923272,37.0108817 Z" id="Path-24" stroke="#FFFFFF" stroke-width="1.2" fill-rule="nonzero" transform="translate(278.421759, 2.684324) rotate(90.000000) translate(-278.421759, -2.684324) "></path>
                <path d="M383.97765,27.2916 C376.022596,27.2916 369.57375,33.7404457 369.57375,41.6955 C369.57375,49.6505543 376.022596,56.0994 383.97765,56.0994 C391.932704,56.0994 398.38155,49.6505543 398.38155,41.6955 C398.38155,33.7404457 391.932704,27.2916 383.97765,27.2916 Z" id="Path" stroke="#FFFFFF" stroke-width="1.5162" fill="#FFFFFF" fill-rule="nonzero"></path>
                <path d="M456.75525,14.4039 L456.75525,25.0173 L467.36865,25.0173 L467.36865,14.4039 L494.66025,14.4039 L494.66025,25.0173 L505.27365,25.0173 L505.27365,14.4039 L515.12895,14.4039 L515.12895,27.2916 L525.74235,27.2916 L525.74235,100.0692 L515.88705,100.0692 L515.88705,78.0843 L445.38375,78.0843 L445.38375,100.0692 L435.52845,100.0692 L435.52845,27.2916 L446.89995,27.2916 L446.89995,14.4039 L456.75525,14.4039 Z M463.57815,67.4709 L458.27145,67.4709 L458.27145,76.5681 L463.57815,76.5681 L463.57815,67.4709 Z M502.99935,67.4709 L497.69265,67.4709 L497.69265,76.5681 L502.99935,76.5681 L502.99935,67.4709 Z M464.33625,34.8726 L457.51335,34.8726 L457.51335,67.4709 L464.33625,67.4709 L464.33625,34.8726 Z M503.75745,34.8726 L496.93455,34.8726 L496.93455,67.4709 L503.75745,67.4709 L503.75745,34.8726 Z" id="Shape" stroke="#FFFFFF" stroke-width="1.5162" fill-rule="nonzero"></path>
                <path d="M488.59545,84.1491 L488.59545,78.0843 L493.14405,78.0843 L493.14405,84.1491 L492.38595,84.1491 L492.38595,110.6826 L489.35355,110.6826 L489.35355,84.1491 L488.59545,84.1491 Z" id="Combined-Shape" fill="#FFFFFF" fill-rule="nonzero"></path>
                <path d="M468.12675,84.1491 L468.12675,78.0843 L472.67535,78.0843 L472.67535,84.1491 L471.91725,84.1491 L471.91725,110.6826 L468.88485,110.6826 L468.88485,84.1491 L468.12675,84.1491 Z" id="Combined-Shape" fill="#FFFFFF" fill-rule="nonzero"></path>
                <polyline id="Path-2" stroke="#FFFFFF" stroke-width="1.5162" transform="translate(141.006600, 108.787350) rotate(90.000000) translate(-141.006600, -108.787350) " points="138.35325 111.4407 138.35325 106.134 143.65995 106.134"></polyline>
                <polyline id="Path-2" stroke="#FFFFFF" stroke-width="1.5162" transform="translate(82.632900, 108.787350) rotate(90.000000) translate(-82.632900, -108.787350) " points="79.97955 106.134 79.97955 111.4407 81.49575 111.4407 85.28625 111.4407"></polyline>
                <polyline id="Path-2" stroke="#FFFFFF" stroke-width="1.5162" transform="translate(82.632900, 167.919150) rotate(90.000000) translate(-82.632900, -167.919150) " points="79.97955 170.5725 85.28625 170.5725 85.28625 165.2658"></polyline>
                <polyline id="Path-2" stroke="#FFFFFF" stroke-width="1.5162" transform="translate(141.006600, 167.919150) rotate(90.000000) translate(-141.006600, -167.919150) " points="143.65995 170.5725 143.65995 165.2658 138.35325 165.2658"></polyline>
                <g id="chip" transform="translate(453.000000, 184.000000)" stroke="#FFFFFF" stroke-width="1.5162">
                    <rect id="Rectangle-7" fill-rule="nonzero" transform="translate(27.670650, 27.670650) rotate(90.000000) translate(-27.670650, -27.670650) " x="2.2743" y="2.2743" width="50.7927" height="50.7927"></rect>
                    <polyline id="Path-2" transform="translate(52.687950, 2.653350) rotate(90.000000) translate(-52.687950, -2.653350) " points="50.0346 5.3067 50.0346 -1.11022302e-14 55.3413 -1.11022302e-14"></polyline>
                    <polyline id="Path-2" transform="translate(2.653350, 2.653350) rotate(90.000000) translate(-2.653350, -2.653350) " points="4.57411886e-14 -1.11022302e-14 4.57411886e-14 5.3067 1.5162 5.3067 5.3067 5.3067"></polyline>
                    <polyline id="Path-2" transform="translate(2.653350, 52.687950) rotate(90.000000) translate(-2.653350, -52.687950) " points="4.57411886e-14 55.3413 5.3067 55.3413 5.3067 50.0346"></polyline>
                    <polyline id="Path-2" transform="translate(52.687950, 52.687950) rotate(90.000000) translate(-52.687950, -52.687950) " points="55.3413 55.3413 55.3413 50.0346 50.0346 50.0346"></polyline>
                </g>
                <g id="Group-12" transform="translate(8.339100, 98.932050)" stroke="#FFFFFF">
                    <g id="Group-11" transform="translate(0.379050, 4.927650)" stroke-width="1.5162">
                        <path d="M3.55271368e-15,23.12205 L15.9201,23.12205" id="Path-8" transform="translate(7.960050, 23.122050) rotate(180.000000) translate(-7.960050, -23.122050) "></path>
                        <path d="M3.55271368e-15,0.37905 L15.9201,0.37905" id="Path-8" transform="translate(7.960050, 0.379050) rotate(180.000000) translate(-7.960050, -0.379050) "></path>
                    </g>
                    <path d="M5.32907052e-15,32.97735 L22.743,32.97735" id="Path-8" stroke-width="1.2" transform="translate(11.371500, 32.977350) rotate(180.000000) translate(-11.371500, -32.977350) "></path>
                    <path d="M5.32907052e-15,0.37905 L22.743,0.37905" id="Path-8" stroke-width="1.2" transform="translate(11.371500, 0.379050) rotate(180.000000) translate(-11.371500, -0.379050) "></path>
                    <path d="M22.36395,1.10134124e-13 L22.36395,32.5983" id="Path-9" stroke-width="1.2" transform="translate(22.363950, 16.299150) rotate(180.000000) translate(-22.363950, -16.299150) "></path>
                </g>
                <g id="Group-16" transform="translate(53.000000, 271.000000)">
                    <polyline id="Path-10" stroke="#FFFFFF" stroke-width="1.2" transform="translate(9.602550, 1.713600) rotate(90.000000) translate(-9.602550, -1.713600) " points="10.60255 -7.7864 8.60255 -7.7864 8.60255 11.2136 10.60255 11.2136"></polyline>
                    <polyline id="Path-11" stroke="#FFFFFF" stroke-width="1.2" transform="translate(9.602550, 20.713600) rotate(90.000000) translate(-9.602550, -20.713600) " points="8.60255 11.2136 10.60255 11.2136 10.60255 30.2136 8.60255 30.2136"></polyline>
                    <rect id="Rectangle" fill="#F8F8F8" x="2.60255" y="4.2136" width="14" height="14"></rect>
                </g>
                <rect id="Rectangle" fill="#F8F8F8" x="46" y="327" width="12" height="12"></rect>
                <polygon id="Path-15" fill="#929292" fill-rule="nonzero" transform="translate(358.848877, 113.909118) rotate(90.000000) translate(-358.848877, -113.909118) " points="396.024605 87.3081285 394.218836 83.6965916 316.959258 83.4736452 316.366449 84.9898452 393.281773 85.2127916 394.508405 87.6660548 394.508405 117.291962 399.815105 124.872962 399.815105 144.344592 401.331305 144.344592 401.331305 124.395022 396.024605 116.814022"></polygon>
                <polyline id="Path-12" stroke="#FFFFFF" stroke-width="2.2743" stroke-linecap="round" stroke-linejoin="round" transform="translate(97.036800, 48.139350) rotate(90.000000) translate(-97.036800, -48.139350) " points="120.15885 102.3435 73.91475 102.3435 73.91475 79.6005 105.75495 79.6005 105.75495 56.8575 73.91475 56.8575 73.91475 36.3888 105.75495 36.3888 105.75495 13.6458 73.91475 13.6458 73.91475 -6.0648"></polyline>
                <g id="Group-5" transform="translate(533.422400, 61.406100)" fill="#FFFFFF" fill-rule="nonzero">
                    <polygon id="Path-20" transform="translate(1.417150, 12.508650) rotate(90.000000) translate(-1.417150, -12.508650) " points="-1.2362 13.6458 4.0705 13.6458 4.0705 11.3715 -1.2362 11.3715"></polygon>
                    <polygon id="Path-20" transform="translate(1.417150, 3.411450) rotate(90.000000) translate(-1.417150, -3.411450) " points="-1.2362 4.5486 4.0705 4.5486 4.0705 2.2743 -1.2362 2.2743"></polygon>
                    <polygon id="Path-21" transform="translate(1.417150, 21.984900) rotate(90.000000) translate(-1.417150, -21.984900) " points="-0.85715 23.12205 3.69145 23.12205 3.69145 20.84775 -0.85715 20.84775"></polygon>
                    <polygon id="Path-17" transform="translate(8.619100, 12.129600) rotate(90.000000) translate(-8.619100, -12.129600) " points="-3.5105 13.26675 20.7487 13.26675 20.7487 10.99245 -3.5105 10.99245"></polygon>
                </g>
                <polyline id="Path-4" stroke="#929292" stroke-width="1.2" transform="translate(133.804650, 327.481900) rotate(90.000000) translate(-133.804650, -327.481900) " points="108.80465 332.7886 108.80465 326.7238 113.350105 322.1752 158.80465 322.9333"></polyline>
                <path d="M68.3871,297.805679 L68.3871,317.524 L73.2357,323.9888 L89.4558,323.9888 L89.4558,322.7888 L73.8357,322.7888 L69.5871,317.124 L69.5871,297.421121 L65.5053707,291.7067 L53.2486654,291.7067 L51.3927,290.46939 L51.3927,287 L50.1927,287 L50.1927,291.11161 L52.8853346,292.9067 L64.8878293,292.9067 L68.3871,297.805679 Z M53.067,291.7067 L53.3998201,291.80747 L53.2486654,291.7067 L53.067,291.7067 Z" id="Path-5" fill="#929292" fill-rule="nonzero" transform="translate(69.824250, 305.494400) rotate(90.000000) translate(-69.824250, -305.494400) "></path>
                <polyline id="Path-6" stroke="#929292" stroke-width="1.2" transform="translate(75.430950, 266.472150) rotate(90.000000) translate(-75.430950, -266.472150) " points="80.3586 254.34255 80.3586 257.37495 80.3586 258.89115 72.0195 258.89115 70.5033 260.40735 70.5033 276.32745 72.0195 278.60175 78.0843 278.60175"></polyline>
                <polyline id="Path-7" stroke="#929292" stroke-width="1.2" transform="translate(77.705250, 194.452650) rotate(90.000000) translate(-77.705250, -194.452650) " points="17.4363 189.14595 17.4363 201.27555 21.2268 205.06605 101.5854 205.06605 132.6675 205.06605 137.9742 199.75935 137.9742 183.83925"></polyline>
                <polyline id="Path-13" stroke="#929292" stroke-width="1.2" stroke-linejoin="round" transform="translate(255.479700, 92.867250) rotate(90.000000) translate(-255.479700, -92.867250) " points="286.18275 72.0195 286.18275 102.3435 274.05315 113.715 234.63195 113.715 224.77665 107.6502"></polyline>
                <polyline id="Path-14" stroke="#929292" stroke-width="1.2" transform="translate(222.502350, 90.972000) rotate(90.000000) translate(-222.502350, -90.972000) " points="271.77885 37.1469 271.77885 50.7927 262.68165 59.8899 262.68165 72.0195 246.00345 86.4234 246.00345 126.6027 239.18055 134.1837 183.08115 134.1837 173.22585 144.7971"></polyline>
                <polyline id="Path-16" stroke="#929292" stroke-width="1.2" transform="translate(392.695800, 135.699900) rotate(90.000000) translate(-392.695800, -135.699900) " points="428.3265 183.83925 428.3265 177.77445 424.536 173.98395 418.4712 173.98395 414.6807 170.19345 414.6807 138.35325 410.1321 133.04655 390.4215 133.04655 384.3567 128.49795 384.3567 92.86725 379.05 87.56055 357.0651 87.56055"></polyline>
                <rect id="Rectangle-24" fill="#FFFFFF" fill-rule="nonzero" transform="translate(331.653350, 30.653350) rotate(90.000000) translate(-331.653350, -30.653350) " x="329" y="28" width="5.3067" height="5.3067"></rect>
                <rect id="Rectangle-24" fill="#FFFFFF" fill-rule="nonzero" transform="translate(331.653350, 48.089650) rotate(90.000000) translate(-331.653350, -48.089650) " x="329" y="45.4363" width="5.3067" height="5.3067"></rect>
                <path d="M325.354126,39.5107566 L337.952574,39.5107566" id="Path-25" transform="translate(331.653350, 39.510757) rotate(90.000000) translate(-331.653350, -39.510757) "></path>
                <path d="M347.58885,72.7776 L346.07265,72.7776 L346.07265,15.162 L349.10505,15.162 L349.10465,69.745 L416.57565,69.745 L416.57595,15.162 L419.60835,15.162 L419.60835,72.7776 L418.09215,72.7776 L416.57595,72.7776 L347.58885,72.7776 Z" id="Combined-Shape" fill="#FFFFFF"></path>
                <rect id="Rectangle" stroke="#FFFFFF" stroke-width="1.5162" x="83.01195" y="109.1664" width="57.6156" height="57.6156"></rect>
                <rect id="Rectangle" stroke="#FFFFFF" stroke-width="1.2" x="91.35105" y="119.0217" width="41.6955" height="38.6631" rx="0.7581"></rect>
                <g id="name" transform="translate(325.500000, 212.500000) scale(-1, 1) translate(-325.500000, -212.500000) translate(232.000000, 199.000000)">
                    <g id="Group-15">
                        <rect id="Rectangle" fill="#F8F8F8" x="0" y="0" width="27" height="27" rx="4"></rect>
                        <polygon id="F" fill="#0C0C0C" fill-rule="nonzero" points="9 20.3 9 6 18.328 6 18.328 9.168 12.784 9.168 12.784 11.896 17.536 11.896 17.536 15.064 12.784 15.064 12.784 20.3"></polygon>
                    </g>
                    <g id="Group-14" transform="translate(32.000000, 0.000000)">
                        <rect id="Rectangle" fill="#F8F8F8" x="0" y="0" width="27" height="27" rx="4"></rect>
                        <polygon id="I" fill="#0C0C0C" fill-rule="nonzero" points="11.608 21 11.608 6.7 15.392 6.7 15.392 21"></polygon>
                    </g>
                    <g id="Group-13" transform="translate(64.000000, 0.000000)">
                        <rect id="Rectangle" fill="#F8F8F8" x="0" y="0" width="27" height="27" rx="4"></rect>
                        <path d="M14.578,20.828 C13.5806617,20.828 12.6420044,20.6776682 11.762,20.377 C10.8819956,20.0763318 10.1156699,19.6216697 9.463,19.013 C8.81033007,18.4043303 8.29700187,17.6416712 7.923,16.725 C7.54899813,15.8083288 7.362,14.7413394 7.362,13.524 C7.362,12.3213273 7.55266476,11.254338 7.934,10.323 C8.31533524,9.39166201 8.83233007,8.60700319 9.485,7.969 C10.1376699,7.33099681 10.8966623,6.84333502 11.762,6.506 C12.6273377,6.16866498 13.5366619,6 14.49,6 C15.5460053,6 16.4589961,6.18699813 17.229,6.561 C17.9990038,6.93500187 18.6406641,7.3786641 19.154,7.892 L17.174,10.312 C16.8219982,10.0039985 16.4516686,9.75100099 16.063,9.553 C15.6743314,9.35499901 15.1940029,9.256 14.622,9.256 C14.1379976,9.256 13.6906687,9.35133238 13.28,9.542 C12.8693313,9.73266762 12.5100015,10.0039982 12.202,10.356 C11.8939985,10.7080018 11.6556675,11.1406641 11.487,11.654 C11.3183325,12.1673359 11.234,12.7466634 11.234,13.392 C11.234,14.7413401 11.5346637,15.7753297 12.136,16.494 C12.7373363,17.2126703 13.6833269,17.572 14.974,17.572 C15.1793344,17.572 15.380999,17.5500002 15.579,17.506 C15.777001,17.4619998 15.9419993,17.3960004 16.074,17.308 L16.074,15.328 L13.962,15.328 L13.962,12.248 L19.418,12.248 L19.418,19.068 C18.9046641,19.5520024 18.2226709,19.9663316 17.372,20.311 C16.5213291,20.6556684 15.5900051,20.828 14.578,20.828 Z" id="G" fill="#0C0C0C" fill-rule="nonzero"></path>
                    </g>
                    <g id="Group-6" transform="translate(96.000000, 0.000000)">
                        <rect id="Rectangle" fill="#F8F8F8" x="0" y="0" width="27" height="27" rx="4"></rect>
                        <path d="M12.356,13.348 L12.114,14.338 L14.754,14.338 L14.512,13.348 C14.3359991,12.6586632 14.1600009,11.9106707 13.984,11.104 C13.8079991,10.2973293 13.6320009,9.53467026 13.456,8.816 L13.368,8.816 C13.2066659,9.549337 13.0416675,10.3156627 12.873,11.115 C12.7043325,11.9143373 12.5320009,12.6586632 12.356,13.348 Z M6.856,20.3 L11.212,6 L15.788,6 L20.144,20.3 L16.14,20.3 L15.436,17.264 L11.432,17.264 L10.728,20.3 L6.856,20.3 Z" id="A" fill="#0C0C0C" fill-rule="nonzero"></path>
                    </g>
                    <g id="Group-2" transform="translate(128.000000, 0.000000)">
                        <rect id="Rectangle" fill="#F8F8F8" x="0" y="0" width="27" height="27" rx="4"></rect>
                        <path d="M8.154,20.3 L8.154,6 L13.566,6 C14.3286705,6 15.0583298,6.0733326 15.755,6.22 C16.4516702,6.3666674 17.0603307,6.61599824 17.581,6.968 C18.1016693,7.32000176 18.5159985,7.79299703 18.824,8.387 C19.1320015,8.98100297 19.286,9.72532886 19.286,10.62 C19.286,11.6466718 19.0770021,12.49733 18.659,13.172 C18.2409979,13.84667 17.6800035,14.3746648 16.976,14.756 L20.078,20.3 L15.854,20.3 L13.39,15.504 L11.938,15.504 L11.938,20.3 L8.154,20.3 Z M11.938,12.512 L13.302,12.512 C14.827341,12.512 15.59,11.8813396 15.59,10.62 C15.59,10.0039969 15.3956686,9.57866784 15.007,9.344 C14.6183314,9.10933216 14.0500037,8.992 13.302,8.992 L11.938,8.992 L11.938,12.512 Z" id="R" fill="#0C0C0C" fill-rule="nonzero"></path>
                    </g>
                    <g id="Group" transform="translate(160.000000, 0.000000)">
                        <rect id="Rectangle" fill="#F8F8F8" x="0" y="0" width="27" height="27" rx="4"></rect>
                        <path d="M13.644,20.828 C12.6466617,20.828 11.7410041,20.659335 10.927,20.322 C10.1129959,19.984665 9.41633623,19.4970032 8.837,18.859 C8.25766377,18.2209968 7.80666828,17.436338 7.484,16.505 C7.16133172,15.573662 7,14.5213392 7,13.348 C7,12.1746608 7.16133172,11.1296712 7.484,10.213 C7.80666828,9.29632875 8.25766377,8.52633645 8.837,7.903 C9.41633623,7.27966355 10.1129959,6.80666828 10.927,6.484 C11.7410041,6.16133172 12.6466617,6 13.644,6 C14.6266716,6 15.5286626,6.16133172 16.35,6.484 C17.1713374,6.80666828 17.8716638,7.28333018 18.451,7.914 C19.0303362,8.54466982 19.4813317,9.31466212 19.804,10.224 C20.1266683,11.1333379 20.288,12.1746608 20.288,13.348 C20.288,14.5213392 20.1266683,15.573662 19.804,16.505 C19.4813317,17.436338 19.0303362,18.2209968 18.451,18.859 C17.8716638,19.4970032 17.1713374,19.984665 16.35,20.322 C15.5286626,20.659335 14.6266716,20.828 13.644,20.828 Z M13.644,17.572 C14.5093377,17.572 15.1876642,17.1943371 15.679,16.439 C16.1703358,15.6836629 16.416,14.6533399 16.416,13.348 C16.416,12.0426601 16.1703358,11.0343369 15.679,10.323 C15.1876642,9.61166311 14.5093377,9.256 13.644,9.256 C12.7786623,9.256 12.1003358,9.61166311 11.609,10.323 C11.1176642,11.0343369 10.872,12.0426601 10.872,13.348 C10.872,14.6533399 11.1176642,15.6836629 11.609,16.439 C12.1003358,17.1943371 12.7786623,17.572 13.644,17.572 Z" id="O" fill="#0C0C0C" fill-rule="nonzero"></path>
                    </g>
                </g>
                <path d="M51.7658665,201.490616 L51.7658665,-1.5162 C51.7658665,-21.1944922 67.7182742,-37.1469 87.3965665,-37.1469 L467.962766,-37.1469 C487.641059,-37.1469 503.593466,-21.1944922 503.593466,-1.5162 L503.593466,482.1516 C503.593466,501.829892 487.641059,517.7823 467.962766,517.7823 L87.3965665,517.7823 C67.7182742,517.7823 51.7658665,501.829892 51.7658665,482.1516 L51.7658665,277.300616" id="border" stroke="#FFFFFF" stroke-width="3.7962" fill-rule="nonzero" transform="translate(277.679666, 240.317700) rotate(90.000000) translate(-277.679666, -240.317700) "></path>
            </g>
        </g>
    </g>
</svg>