<?xml version="1.0" encoding="UTF-8"?>
<svg width="169px" height="103px" viewBox="0 0 169 103" version="1.1" xmlns="http://www.w3.org/2000/svg" xmlns:xlink="http://www.w3.org/1999/xlink">
    <!-- Generator: Sketch 61.2 (89653) - https://sketch.com -->
    <title>Lettering</title>
    <desc>Created with Sketch.</desc>
    <g id="Page-1" stroke="none" stroke-width="1" fill="none" fill-rule="evenodd">
        <g id="Artboard" transform="translate(-96.000000, -120.000000)" fill="#FFFFFF">
            <g id="Lettering" transform="translate(96.000000, 120.000000)">
                <path d="M15.8395581,72.664 C16.3384419,72.664 16.9204729,72.354 17.5856512,71.734 C18.2508295,71.114 18.5834186,70.556 18.5834186,70.06 C18.5834186,69.7293333 18.5002713,69.4813333 18.3339767,69.316 C17.5025039,68.324 16.7333915,66.588 16.0266395,64.108 C15.3198876,61.628 14.6962829,59.0653333 14.1558256,56.42 C13.6153682,53.7746667 13.1996318,51.3566667 12.9086163,49.166 C12.6176008,46.9753333 12.472093,45.6733333 12.472093,45.26 C12.472093,44.8466667 13.054124,44.206 14.218186,43.338 C15.3822481,42.47 16.8373256,41.5193333 18.5834186,40.486 C20.3295116,39.4526667 22.2211124,38.3366667 24.2582209,37.138 C26.2953295,35.9393333 28.1869302,34.8026667 29.9330233,33.728 C31.6791163,32.6533333 33.1341938,31.6613333 34.2982558,30.752 C35.4623178,29.8426667 36.0443488,29.14 36.0443488,28.644 C36.0443488,27.9826667 35.8156938,27.528 35.3583837,27.28 C34.9010736,27.032 34.3814031,26.908 33.7993721,26.908 C33.0510465,26.908 32.0117054,27.156 30.6813488,27.652 C29.3509922,28.148 27.8959147,28.768 26.3161163,29.512 C24.7363178,30.256 23.0941589,31.0826667 21.3896395,31.992 C19.6851202,32.9013333 18.1261085,33.7486667 16.7126047,34.534 C15.2991008,35.3193333 14.1142519,36.022 13.1580581,36.642 C12.2018643,37.262 11.6406202,37.6133333 11.4743256,37.696 C11.3911783,37.696 11.2040969,36.828 10.9130814,35.092 C10.6220659,33.356 10.2686899,31.4133333 9.85295349,29.264 L9.85295349,29.264 L8.35630233,20.832 C8.43944961,19.5093333 9.62429845,17.98 11.9108488,16.244 C14.1973992,14.508 16.7957519,12.8546667 19.705907,11.284 C22.616062,9.71333333 25.4222829,8.41133333 28.1245698,7.378 C30.8268566,6.34466667 32.6353101,5.828 33.5499302,5.828 C34.2151085,5.828 34.7971395,5.86933333 35.2960233,5.952 C35.794907,6.03466667 36.376938,6.076 37.0421163,6.076 C37.4578527,5.99333333 37.8320155,5.86933333 38.1646047,5.704 L38.1646047,5.704 L38.9129302,5.208 C39.1623721,5.04266667 39.287093,4.79466667 39.287093,4.464 C39.287093,3.30666667 38.6634884,2.27333333 37.4162791,1.364 C36.1690698,0.454666667 35.0050078,-2.84217094e-14 33.924093,-2.84217094e-14 C31.1802326,-2.84217094e-14 28.2077171,0.723333333 25.0065465,2.17 C21.805376,3.61666667 18.8120736,5.22866667 16.0266395,7.006 C13.2412054,8.78333333 10.8922946,10.4366667 8.97990698,11.966 C7.06751938,13.4953333 5.98660465,14.3426667 5.73716279,14.508 C5.57086822,14.508 5.32142636,14.322 4.98883721,13.95 C4.65624806,13.578 4.4068062,13.392 4.24051163,13.392 C3.40903876,13.392 2.8685814,13.7433333 2.61913953,14.446 C2.36969767,15.1486667 2.24497674,15.8306667 2.24497674,16.492 L2.24497674,16.492 L5.73716279,40.176 C5.23827907,40.5066667 4.65624806,40.8373333 3.99106977,41.168 C3.32589147,41.4986667 2.70228682,41.8706667 2.12025581,42.284 C1.53822481,42.6973333 1.03934109,43.152 0.623604651,43.648 C0.207868217,44.144 2.85869519e-14,44.7226667 2.85869519e-14,45.384 C2.85869519e-14,46.0453333 0.270228682,46.686 0.810686047,47.306 C1.35114341,47.926 1.99553488,48.236 2.74386047,48.236 C3.74162791,48.236 4.69782171,48.0913333 5.61244186,47.802 C6.52706202,47.5126667 7.10909302,47.368 7.35853488,47.368 C7.44168217,47.368 7.60797674,47.988 7.8574186,49.228 C8.10686047,50.468 8.41866279,52.0386667 8.79282558,53.94 C9.16698837,55.8413333 9.62429845,57.8666667 10.1647558,60.016 C10.7052132,62.1653333 11.2664574,64.1906667 11.8484884,66.092 C12.4305194,67.9933333 13.0749109,69.564 13.7816628,70.804 C14.4884147,72.044 15.1743798,72.664 15.8395581,72.664 Z" id="Path" fill-rule="nonzero"></path>
                <g id="Group" transform="translate(42.159698, 38.052000) rotate(12.000000) translate(-42.159698, -38.052000) translate(33.107372, 13.052000)">
                    <path d="M6.88090862,8.19912724 L7.79505814,7.5 C9.17577001,6.44405317 9.4390441,4.468751 8.38309727,3.08803913 C8.21395728,2.86687876 8.01621851,2.66913999 7.79505814,2.5 L6.88090202,1.80086771 C5.34349037,0.625088399 3.18480062,0.718728743 1.75498387,2.02322697 C0.584994623,3.09067068 0,4.08292836 0,5 C0,5.91707374 0.584997298,6.90933385 1.75499189,7.97678035 C3.18481316,9.28127261 5.34350189,9.37491185 6.88090862,8.19912724 Z" id="Oval"></path>
                    <path d="M13.8882791,49.444 C14.3040155,49.444 14.948407,49.2373333 15.8214535,48.824 C16.6945,48.4106667 17.1310233,47.9146667 17.1310233,47.336 C17.1310233,47.088 16.9855155,46.282 16.6945,44.918 C16.4034845,43.554 16.0085349,41.942 15.5096512,40.082 C15.0107674,38.222 14.4287364,36.238 13.7635581,34.13 C13.0983798,32.022 12.3708411,30.0793333 11.5809419,28.302 C10.7910426,26.5246667 9.98035659,25.0573333 9.14888372,23.9 C8.31741085,22.7426667 7.52751163,22.164 6.77918605,22.164 C6.11400775,22.164 5.55276357,22.66 5.09545349,23.652 C4.63814341,24.644 4.40948837,25.7186667 4.40948837,26.876 C4.40948837,26.9586667 4.5342093,27.4133333 4.78365116,28.24 C5.03309302,29.0666667 5.34489535,30.0173333 5.71905814,31.092 C6.09322093,32.1666667 6.48817054,33.2826667 6.90390698,34.44 C7.31964341,35.5973333 7.65223256,36.5893333 7.90167442,37.416 C8.06796899,37.912 8.31741085,38.8006667 8.65,40.082 C8.98258915,41.3633333 9.39832558,42.7066667 9.8972093,44.112 C10.396093,45.5173333 10.978124,46.7573333 11.6433023,47.832 C12.3084806,48.9066667 13.0568062,49.444 13.8882791,49.444 Z" id="Path" fill-rule="nonzero"></path>
                </g>
                <path d="M68.1660233,22.196 C69.5795271,22.196 70.8890969,22.444 72.0947326,22.94 C73.3003682,23.436 73.903186,24.056 73.903186,24.8 C73.903186,25.4613333 73.7784651,25.9986667 73.5290233,26.412 C73.4543364,26.5357586 73.3461059,26.6873086 73.2043172,26.8666387 C72.8489764,27.3161377 72.2187708,27.4390407 71.7205698,27.156 L71.7205698,27.156 L71.5894855,27.0902041 C71.3145904,26.9687347 70.9633355,26.908 70.5357209,26.908 C68.7064806,26.908 67.0643217,27.714 65.6092442,29.326 C64.1541667,30.938 62.9277442,32.922 61.9299767,35.278 C60.9322093,37.634 60.1630969,40.0933333 59.6226395,42.656 C59.0821822,45.2186667 58.8119535,47.4506667 58.8119535,49.352 C58.8119535,53.568 59.5187054,56.7713333 60.9322093,58.962 C62.3457132,61.1526667 63.8423643,62.248 65.4221628,62.248 C66.1704884,62.248 66.9811744,61.69 67.8542209,60.574 C68.7272674,59.458 69.5587403,58.218 70.3486395,56.854 C71.1385388,55.49 71.8245039,54.188 72.4065349,52.948 C72.9885659,51.708 73.321155,50.964 73.4043023,50.716 C73.5705969,49.8893333 73.6537442,48.9386667 73.6537442,47.864 C73.6537442,46.9546667 73.6329574,45.942 73.5913837,44.826 C73.5498101,43.71 73.5290233,42.5733333 73.5290233,41.416 C73.5290233,39.2666667 73.6953178,37.4686667 74.027907,36.022 C74.3604961,34.5753333 75.191969,33.852 76.5223256,33.852 C77.8526822,33.852 78.808876,34.2446667 79.390907,35.03 C79.972938,35.8153333 80.2639535,36.7453333 80.2639535,37.82 C80.2639535,38.564 80.2431667,39.4526667 80.201593,40.486 C80.1600194,41.5193333 80.1392326,42.5113333 80.1392326,43.462 C80.1392326,44.4126667 80.1184457,45.2393333 80.0768721,45.942 C80.0352984,46.6446667 80.0145116,47.0786667 80.0145116,47.244 C80.0145116,47.74 80.0768721,48.4633333 80.201593,49.414 C80.326314,50.3646667 80.4510349,51.3153333 80.5757558,52.266 C80.7004767,53.2166667 80.8251977,54.0846667 80.9499186,54.87 C81.0746395,55.6553333 81.1785736,56.172 81.2617209,56.42 C81.3448682,56.668 81.4695891,57.04 81.6358837,57.536 C81.8021783,58.032 81.9684729,58.404 82.1347674,58.652 C82.2179147,58.4866667 82.3842093,58.3006667 82.6336512,58.094 C82.883093,57.8873333 83.0909612,57.7013333 83.2572558,57.536 C83.6729922,57.784 84.0679419,58.2593333 84.4421047,58.962 C84.8162674,59.6646667 85.0033488,60.0573333 85.0033488,60.14 C85.0033488,61.0493333 84.6707597,61.6693333 84.0055814,62 C83.3404031,62.3306667 83.007814,62.7853333 83.007814,63.364 C82.9246667,63.2813333 83.0909612,63.736 83.5066977,64.728 C83.9224341,65.72 84.2965969,66.7533333 84.629186,67.828 C85.2112171,70.06 85.7308876,72.0026667 86.1881977,73.656 C86.6455078,75.3093333 87.0196705,76.8386667 87.310686,78.244 C87.6017016,79.6493333 87.8303566,81.0546667 87.9966512,82.46 C88.1629457,83.8653333 88.246093,85.436 88.246093,87.172 C88.246093,88.908 87.9550775,90.6853333 87.3730465,92.504 C86.7910155,94.3226667 85.9595426,95.9346667 84.8786279,97.34 C83.7977132,98.7453333 82.4673566,99.9026667 80.8875581,100.812 C79.3077597,101.721333 77.520093,102.176 75.5245581,102.176 C72.4481085,102.176 70.0160504,101.556 68.2283837,100.316 C66.4407171,99.076 65.0895736,97.6706667 64.1749535,96.1 C63.2603333,94.5293333 62.6783023,92.9793333 62.4288605,91.45 C62.1794186,89.9206667 62.0546977,88.908 62.0546977,88.412 C62.0546977,85.3533333 62.8445969,82.2946667 64.4243953,79.236 C66.0041938,76.1773333 67.7502868,73.408 69.6626744,70.928 C71.575062,68.448 73.321155,66.3813333 74.9009535,64.728 C76.4807519,63.0746667 77.2706512,62.124 77.2706512,61.876 L77.2706512,61.876 L75.8987209,57.784 C75.0672481,58.776 74.3397093,59.8713333 73.7161047,61.07 C73.0925,62.2686667 72.4273217,63.3846667 71.7205698,64.418 C71.0138178,65.4513333 70.182345,66.3193333 69.2261512,67.022 C68.2699574,67.7246667 67.0851085,68.076 65.6716047,68.076 C64.1749535,68.076 62.6783023,67.6213333 61.1816512,66.712 C59.685,65.8026667 58.3546434,64.4386667 57.1905814,62.62 C56.0265194,60.8013333 55.0911124,58.6106667 54.3843605,56.048 C53.6776085,53.4853333 53.3242326,50.5093333 53.3242326,47.12 C53.3242326,45.2186667 53.6152481,42.842 54.1972791,39.99 C54.7793101,37.138 55.6939302,34.3893333 56.9411395,31.744 C58.1883488,29.0986667 59.7473605,26.846 61.6181744,24.986 C63.4889884,23.126 65.6716047,22.196 68.1660233,22.196 Z M78.3931395,67.828 C76.9796357,69.564 75.6284922,71.238 74.3397093,72.85 C73.0509264,74.462 71.8868643,76.0533333 70.8475233,77.624 C69.8081822,79.1946667 68.9767093,80.8273333 68.3531047,82.522 C67.7295,84.2166667 67.4176977,86.0146667 67.4176977,87.916 C67.4176977,90.4786667 68.1452364,92.5866667 69.600314,94.24 C71.0553915,95.8933333 72.6559767,96.72 74.4020698,96.72 C76.3144574,96.72 78.1229109,96.0173333 79.8274302,94.612 C81.5319496,93.2066667 82.3842093,91.1813333 82.3842093,88.536 C82.3842093,86.8 82.3426357,85.3533333 82.2594884,84.196 C82.1763411,83.0386667 82.072407,82.026 81.947686,81.158 C81.8229651,80.29 81.6566705,79.4633333 81.4488023,78.678 C81.2409341,77.8926667 81.0122791,76.9626667 80.7628372,75.888 C80.4302481,74.5653333 80.0560853,73.2426667 79.6403488,71.92 C79.2246124,70.5973333 78.808876,69.2333333 78.3931395,67.828 Z" id="Combined-Shape" fill-rule="nonzero"></path>
                <path d="M103.397674,23.908 C104.312295,23.908 104.915112,24.3006667 105.206128,25.086 C105.497143,25.8713333 105.642651,26.636 105.642651,27.38 C106.210824,30.232 106.647348,31.6993333 106.952221,31.782 C107.409531,31.906 107.825267,32.0713333 108.19943,32.278 C108.573593,32.4846667 108.864609,32.7946667 109.072477,33.208 C109.280345,33.6213333 109.384279,34.2826667 109.384279,35.192 C109.384279,35.7706667 109.342705,36.2873333 109.259558,36.742 C109.176411,37.1966667 109.134837,37.6306667 109.134837,38.044 C109.134837,40.1933333 109.301132,42.3013333 109.633721,44.368 C109.96631,46.4346667 110.631488,48.274 111.629256,49.886 C112.627023,51.498 113.998953,52.8206667 115.745047,53.854 C117.49114,54.8873333 119.819264,55.404 122.729419,55.404 C126.387899,55.404 124.558659,61.604 121.232767,61.604 C119.736116,61.604 118.156318,61.356 116.493372,60.86 C114.830426,60.364 113.209054,59.6406667 111.629256,58.69 C110.049457,57.7393333 108.635953,56.582 107.388744,55.218 C106.141535,53.854 105.226915,52.304 104.644884,50.568 C104.146,51.064 103.543182,51.8906667 102.83643,53.048 C102.129678,54.2053333 101.360566,55.3833333 100.529093,56.582 C99.6976202,57.7806667 98.783,58.814 97.7852326,59.682 C96.7874651,60.55 95.748124,60.984 94.6672093,60.984 C93.5862946,60.984 92.6924612,60.426 91.9857093,59.31 C91.2789574,58.194 90.7177132,56.954 90.3019767,55.59 C89.8862403,54.226 89.5952248,52.924 89.4289302,51.684 C89.2626357,50.444 89.1794884,49.7413333 89.1794884,49.576 C89.1794884,48.584 89.4705039,46.7033333 90.0525349,43.934 C90.6345659,41.1646667 91.5076124,38.292 92.6716744,35.316 C93.8357364,32.34 95.3116008,29.6946667 97.0992674,27.38 C98.8869341,25.0653333 100.986403,23.908 103.397674,23.908 Z M101.936563,33.8874662 C101.272372,33.4643664 100.390949,33.6598092 99.9678488,34.324 L99.9678488,34.324 L99.7060889,34.7449877 C99.0121683,35.8880329 98.351096,37.1943704 97.7228721,38.664 C97.0161202,40.3173333 96.454876,41.9913333 96.0391395,43.686 C95.6234031,45.3806667 95.4155349,46.7653333 95.4155349,47.84 C95.4155349,48.4186667 95.5818295,49.3693333 95.9144186,50.692 L95.9144186,50.692 L95.9543118,50.8200418 C96.0633799,51.1117777 96.2822415,51.3517648 96.5669205,51.4864599 C97.1677926,51.7707609 97.8853671,51.5141293 98.1696681,50.9132572 L98.1696681,50.9132572 L98.3850277,50.4576112 C99.5166434,48.0607659 100.37684,46.1962289 100.965616,44.864 C102.171252,42.136 102.77407,39.4493333 102.77407,36.804 C102.77407,36.6692206 102.711908,36.045168 102.587567,34.9318439 C102.539697,34.5031723 102.300357,34.1192087 101.936563,33.8874662 Z" id="Combined-Shape" fill-rule="nonzero"></path>
                <path d="M132.134244,57.997937 C132.716259,57.997937 133.360481,57.6264197 134.066912,56.8826829 C134.773343,56.1389462 135.126425,55.4364018 135.126158,54.7750497 C135.125957,54.2790357 135.021817,53.7623126 134.813737,53.2248805 C134.605657,52.6874483 134.397486,51.9226764 134.189222,50.9305647 C133.980958,49.9384531 133.772577,48.6569999 133.56408,47.0862051 C133.355582,45.5154104 133.250798,43.407309 133.249727,40.7619008 C133.249092,39.1911897 133.35248,37.8478602 133.559891,36.7319122 C133.767301,35.6159643 134.224222,34.6861219 134.930653,33.9423851 C135.637085,33.1986484 136.61382,32.6616928 137.860861,32.3315185 C139.107901,32.0013441 140.770733,31.836675 142.849357,31.8375111 C143.098792,31.8376114 143.431405,31.9204142 143.847197,32.0859195 C144.262988,32.2514247 145.094471,32.3344281 146.341645,32.3349298 C146.75737,32.335097 147.297787,32.2733127 147.962897,32.1495767 C148.628006,32.0258408 149.29309,31.8401031 149.95815,31.5923636 C150.623209,31.3446241 151.205098,31.0348495 151.703817,30.6630396 C152.202537,30.2912298 152.451545,29.8159833 152.451545,29.2373003 C152.451545,28.6586173 152.264059,28.2245297 151.88979,27.9350377 C151.51552,27.6455457 151.203652,27.459415 150.954183,27.3766457 C149.873132,26.9628659 148.771353,26.6937485 147.648846,26.5692934 C146.526339,26.4448384 144.842628,26.3821594 142.597715,26.3812564 C140.186511,26.3802865 138.149611,26.7514776 136.487013,27.4948298 C134.824415,28.238182 133.618963,28.6097075 132.870659,28.6094065 C132.538079,28.6092727 132.267799,28.4644933 132.05982,28.1750682 C131.851841,27.885643 131.664631,27.5548918 131.49819,27.1828143 C131.33175,26.8107369 131.123754,26.4799773 130.874202,26.1905354 C130.62465,25.9010936 130.292012,25.7561217 129.876287,25.7561217 C129.377417,25.7561217 128.878665,26.045062 128.380029,26.6235444 C127.881393,27.2020268 127.424406,27.9665311 127.009065,28.9170574 C126.593725,29.8675838 126.261597,30.9834816 126.012681,32.2647508 C125.763764,33.5460201 125.63959,34.8893412 125.640157,36.2947143 C125.64066,37.5347494 125.807686,39.3535344 126.141236,41.7510694 C126.474785,44.1486043 126.912275,46.5668483 127.453703,49.0058013 C127.995132,51.4447544 128.661145,53.5530816 129.451741,55.3307829 C130.242337,57.1084843 131.136504,57.9975356 132.134244,57.997937 Z" id="Path" fill-rule="nonzero" transform="translate(139.045851, 41.877029) rotate(-4.000000) translate(-139.045851, -41.877029) "></path>
                <path d="M156.126465,32.164 C156.375907,32.164 156.770857,32.2466667 157.311314,32.412 C157.851771,32.5773333 158.413016,32.8253333 158.995047,33.156 C159.577078,33.4866667 160.096748,33.9 160.554058,34.396 C161.011368,34.892 161.323171,35.4706667 161.489465,36.132 C162.404085,36.2146667 163.318705,36.5453333 164.233326,37.124 C165.147946,37.7026667 165.646829,38.1573333 165.729977,38.488 C166.395155,40.6373333 166.831678,42.7866667 167.039547,44.936 C167.247415,47.0853333 167.351349,48.8626667 167.351349,50.268 C167.351349,52.0866667 167.101907,53.8226667 166.603023,55.476 C166.10414,57.1293333 165.438961,58.576 164.607488,59.816 C163.776016,61.056 162.799035,62.0273333 161.676547,62.73 C160.554058,63.4326667 159.327636,63.784 157.997279,63.784 C155.669155,63.784 153.839915,63.1226667 152.509558,61.8 C151.179202,60.4773333 150.160647,58.948 149.453895,57.212 C148.747143,55.476 148.289833,53.7193333 148.081965,51.942 C147.874097,50.1646667 147.770163,48.8213333 147.770163,47.912 C147.770163,46.424 147.998818,44.75 148.456128,42.89 C148.913438,41.03 149.537043,39.3146667 150.326942,37.744 C151.116841,36.1733333 152.010674,34.8506667 153.008442,33.776 C154.006209,32.7013333 155.04555,32.164 156.126465,32.164 Z M157.872558,39.852 C156.874791,39.852 156.084891,40.1206667 155.50286,40.658 C154.920829,41.1953333 154.484306,41.898 154.193291,42.766 C153.902275,43.634 153.715194,44.564 153.632047,45.556 C153.548899,46.548 153.507326,47.4986667 153.507326,48.408 C153.507326,49.3173333 153.548899,50.33 153.632047,51.446 C153.715194,52.562 153.902275,53.616 154.193291,54.608 C154.484306,55.6 154.879256,56.4473333 155.37814,57.15 C155.877023,57.8526667 156.542202,58.204 157.373674,58.204 C158.205147,58.204 158.911899,57.77 159.49393,56.902 C160.075961,56.034 160.533271,55.0213333 160.86586,53.864 C161.19845,52.7066667 161.427105,51.57 161.551826,50.454 C161.676547,49.338 161.738907,48.532 161.738907,48.036 C161.738907,46.796 161.614186,45.494 161.364744,44.13 C161.115302,42.766 160.616419,41.3813333 159.868093,39.976 C159.701798,40.0586667 159.49393,40.1 159.244488,40.1 C158.911899,40.1 158.641671,40.0586667 158.433802,39.976 C158.225934,39.8933333 158.038853,39.852 157.872558,39.852 Z" id="Combined-Shape" fill-rule="nonzero" transform="translate(157.560756, 47.974000) rotate(22.000000) translate(-157.560756, -47.974000) "></path>
                <path d="M41.7815116,18.6 C42.2803953,18.6 42.9455736,18.3933333 43.7770465,17.98 C44.6085194,17.5666667 45.4192054,17.0913333 46.2091047,16.554 C46.9990039,16.0166667 47.684969,15.5 48.267,15.004 C48.849031,14.508 49.1400465,14.1773333 49.1400465,14.012 C49.1400465,13.516 48.7866705,13.0613333 48.0799186,12.648 C47.3731667,12.2346667 46.5624806,11.8626667 45.6478605,11.532 C44.7332403,11.2013333 43.839407,10.9326667 42.9663605,10.726 C42.093314,10.5193333 41.5320698,10.416 41.2826279,10.416 C39.9522713,10.416 38.8713566,10.9326667 38.0398837,11.966 C37.2084109,12.9993333 36.7926744,14.0946667 36.7926744,15.252 C36.7926744,15.996 37.0005426,16.5953333 37.4162791,17.05 C37.8320155,17.5046667 38.3101124,17.856 38.8505698,18.104 C39.3910271,18.352 39.9314845,18.4966667 40.4719419,18.538 C41.0123992,18.5793333 41.4489225,18.6 41.7815116,18.6 Z" id="Path" fill-rule="nonzero"></path>
            </g>
        </g>
    </g>
</svg>